<mxfile host="Electron" agent="Mozilla/5.0 (Macintosh; Intel Mac OS X 10_15_7) AppleWebKit/537.36 (KHTML, like Gecko) draw.io/24.7.17 Chrome/128.0.6613.36 Electron/32.0.1 Safari/537.36" version="24.7.17">
  <diagram name="第 1 页" id="A8yJB9tZWANr2_-RjHqj">
    <mxGraphModel dx="1080" dy="826" grid="1" gridSize="10" guides="1" tooltips="1" connect="1" arrows="1" fold="1" page="1" pageScale="1" pageWidth="827" pageHeight="1169" math="0" shadow="0">
      <root>
        <mxCell id="0" />
        <mxCell id="1" parent="0" />
        <mxCell id="IfO0auWpTc6W7PwIrmge-42" value="" style="rounded=1;whiteSpace=wrap;html=1;fontFamily=Verdana;fontSize=16;arcSize=4;fillColor=#ffe6cc;strokeColor=#d79b00;" parent="1" vertex="1">
          <mxGeometry x="3090" y="522" width="440" height="290" as="geometry" />
        </mxCell>
        <mxCell id="IfO0auWpTc6W7PwIrmge-10" value="&lt;font style=&quot;font-size: 36px;&quot;&gt;BSA&lt;/font&gt;" style="text;html=1;align=center;verticalAlign=middle;whiteSpace=wrap;rounded=0;fontFamily=Verdana;fontSize=16;fontColor=default;" parent="1" vertex="1">
          <mxGeometry x="120" y="1570" width="260" height="60" as="geometry" />
        </mxCell>
        <mxCell id="IfO0auWpTc6W7PwIrmge-21" style="edgeStyle=orthogonalEdgeStyle;rounded=0;orthogonalLoop=1;jettySize=auto;html=1;fontFamily=Verdana;fontSize=16;fontColor=default;" parent="1" source="IfO0auWpTc6W7PwIrmge-12" target="IfO0auWpTc6W7PwIrmge-13" edge="1">
          <mxGeometry relative="1" as="geometry" />
        </mxCell>
        <mxCell id="IfO0auWpTc6W7PwIrmge-12" value="BSA tests" style="rounded=1;whiteSpace=wrap;html=1;fontFamily=Verdana;fontSize=16;" parent="1" vertex="1">
          <mxGeometry x="580" y="230" width="560" height="60" as="geometry" />
        </mxCell>
        <mxCell id="IfO0auWpTc6W7PwIrmge-22" style="edgeStyle=orthogonalEdgeStyle;rounded=0;orthogonalLoop=1;jettySize=auto;html=1;fontFamily=Verdana;fontSize=16;fontColor=default;" parent="1" source="IfO0auWpTc6W7PwIrmge-13" target="IfO0auWpTc6W7PwIrmge-14" edge="1">
          <mxGeometry relative="1" as="geometry" />
        </mxCell>
        <mxCell id="IfO0auWpTc6W7PwIrmge-13" value="VAL" style="rounded=1;whiteSpace=wrap;html=1;fontFamily=Verdana;fontSize=16;" parent="1" vertex="1">
          <mxGeometry x="580" y="350" width="560" height="60" as="geometry" />
        </mxCell>
        <mxCell id="IfO0auWpTc6W7PwIrmge-25" style="edgeStyle=orthogonalEdgeStyle;rounded=0;orthogonalLoop=1;jettySize=auto;html=1;fontFamily=Verdana;fontSize=16;fontColor=default;" parent="1" source="IfO0auWpTc6W7PwIrmge-14" target="IfO0auWpTc6W7PwIrmge-16" edge="1">
          <mxGeometry relative="1" as="geometry" />
        </mxCell>
        <mxCell id="IfO0auWpTc6W7PwIrmge-14" value="PAL" style="rounded=1;whiteSpace=wrap;html=1;fontFamily=Verdana;fontSize=16;" parent="1" vertex="1">
          <mxGeometry x="580" y="460" width="560" height="60" as="geometry" />
        </mxCell>
        <mxCell id="IfO0auWpTc6W7PwIrmge-15" value="Linux" style="rounded=1;whiteSpace=wrap;html=1;fontFamily=Verdana;fontSize=16;arcSize=8;" parent="1" vertex="1">
          <mxGeometry x="580" y="585" width="110" height="165" as="geometry" />
        </mxCell>
        <mxCell id="IfO0auWpTc6W7PwIrmge-16" value="UEFI shell" style="rounded=1;whiteSpace=wrap;html=1;fontFamily=Verdana;fontSize=16;arcSize=8;" parent="1" vertex="1">
          <mxGeometry x="725" y="585" width="270" height="65" as="geometry" />
        </mxCell>
        <mxCell id="IfO0auWpTc6W7PwIrmge-17" value="U-Boot" style="rounded=1;whiteSpace=wrap;html=1;fontFamily=Verdana;fontSize=16;arcSize=8;" parent="1" vertex="1">
          <mxGeometry x="725" y="695" width="120" height="55" as="geometry" />
        </mxCell>
        <mxCell id="IfO0auWpTc6W7PwIrmge-18" value="UEFI" style="rounded=1;whiteSpace=wrap;html=1;fontFamily=Verdana;fontSize=16;arcSize=8;" parent="1" vertex="1">
          <mxGeometry x="875" y="695" width="120" height="55" as="geometry" />
        </mxCell>
        <mxCell id="IfO0auWpTc6W7PwIrmge-19" value="Bare-metal&lt;div&gt;drivers&lt;/div&gt;" style="rounded=1;whiteSpace=wrap;html=1;fontFamily=Verdana;fontSize=16;arcSize=8;" parent="1" vertex="1">
          <mxGeometry x="1030" y="585" width="110" height="165" as="geometry" />
        </mxCell>
        <mxCell id="IfO0auWpTc6W7PwIrmge-20" value="Hardware" style="rounded=1;whiteSpace=wrap;html=1;fontFamily=Verdana;fontSize=16;" parent="1" vertex="1">
          <mxGeometry x="580" y="800" width="560" height="60" as="geometry" />
        </mxCell>
        <mxCell id="IfO0auWpTc6W7PwIrmge-24" style="edgeStyle=orthogonalEdgeStyle;rounded=0;orthogonalLoop=1;jettySize=auto;html=1;entryX=0.098;entryY=0.992;entryDx=0;entryDy=0;entryPerimeter=0;fontFamily=Verdana;fontSize=16;fontColor=default;startArrow=classic;startFill=1;endArrow=none;endFill=0;" parent="1" source="IfO0auWpTc6W7PwIrmge-15" target="IfO0auWpTc6W7PwIrmge-14" edge="1">
          <mxGeometry relative="1" as="geometry" />
        </mxCell>
        <mxCell id="IfO0auWpTc6W7PwIrmge-26" style="edgeStyle=orthogonalEdgeStyle;rounded=0;orthogonalLoop=1;jettySize=auto;html=1;entryX=0.902;entryY=1.008;entryDx=0;entryDy=0;entryPerimeter=0;fontFamily=Verdana;fontSize=16;fontColor=default;startArrow=classic;startFill=1;endArrow=none;endFill=0;" parent="1" source="IfO0auWpTc6W7PwIrmge-19" target="IfO0auWpTc6W7PwIrmge-14" edge="1">
          <mxGeometry relative="1" as="geometry" />
        </mxCell>
        <mxCell id="IfO0auWpTc6W7PwIrmge-27" style="edgeStyle=orthogonalEdgeStyle;rounded=0;orthogonalLoop=1;jettySize=auto;html=1;entryX=0.222;entryY=0.992;entryDx=0;entryDy=0;entryPerimeter=0;fontFamily=Verdana;fontSize=16;fontColor=default;startArrow=classic;startFill=1;endArrow=none;endFill=0;" parent="1" source="IfO0auWpTc6W7PwIrmge-17" target="IfO0auWpTc6W7PwIrmge-16" edge="1">
          <mxGeometry relative="1" as="geometry" />
        </mxCell>
        <mxCell id="IfO0auWpTc6W7PwIrmge-28" style="edgeStyle=orthogonalEdgeStyle;rounded=0;orthogonalLoop=1;jettySize=auto;html=1;entryX=0.781;entryY=1.008;entryDx=0;entryDy=0;entryPerimeter=0;fontFamily=Verdana;fontSize=16;fontColor=default;startArrow=classic;startFill=1;endArrow=none;endFill=0;" parent="1" source="IfO0auWpTc6W7PwIrmge-18" target="IfO0auWpTc6W7PwIrmge-16" edge="1">
          <mxGeometry relative="1" as="geometry" />
        </mxCell>
        <mxCell id="IfO0auWpTc6W7PwIrmge-29" style="edgeStyle=orthogonalEdgeStyle;rounded=0;orthogonalLoop=1;jettySize=auto;html=1;entryX=0.097;entryY=0;entryDx=0;entryDy=0;entryPerimeter=0;fontFamily=Verdana;fontSize=16;fontColor=default;" parent="1" source="IfO0auWpTc6W7PwIrmge-15" target="IfO0auWpTc6W7PwIrmge-20" edge="1">
          <mxGeometry relative="1" as="geometry" />
        </mxCell>
        <mxCell id="IfO0auWpTc6W7PwIrmge-30" style="edgeStyle=orthogonalEdgeStyle;rounded=0;orthogonalLoop=1;jettySize=auto;html=1;entryX=0.367;entryY=-0.007;entryDx=0;entryDy=0;entryPerimeter=0;fontFamily=Verdana;fontSize=16;fontColor=default;" parent="1" source="IfO0auWpTc6W7PwIrmge-17" target="IfO0auWpTc6W7PwIrmge-20" edge="1">
          <mxGeometry relative="1" as="geometry" />
        </mxCell>
        <mxCell id="IfO0auWpTc6W7PwIrmge-31" style="edgeStyle=orthogonalEdgeStyle;rounded=0;orthogonalLoop=1;jettySize=auto;html=1;entryX=0.633;entryY=0;entryDx=0;entryDy=0;entryPerimeter=0;fontFamily=Verdana;fontSize=16;fontColor=default;" parent="1" source="IfO0auWpTc6W7PwIrmge-18" target="IfO0auWpTc6W7PwIrmge-20" edge="1">
          <mxGeometry relative="1" as="geometry" />
        </mxCell>
        <mxCell id="IfO0auWpTc6W7PwIrmge-32" style="edgeStyle=orthogonalEdgeStyle;rounded=0;orthogonalLoop=1;jettySize=auto;html=1;entryX=0.902;entryY=0.008;entryDx=0;entryDy=0;entryPerimeter=0;fontFamily=Verdana;fontSize=16;fontColor=default;" parent="1" source="IfO0auWpTc6W7PwIrmge-19" target="IfO0auWpTc6W7PwIrmge-20" edge="1">
          <mxGeometry relative="1" as="geometry" />
        </mxCell>
        <mxCell id="IfO0auWpTc6W7PwIrmge-37" style="edgeStyle=orthogonalEdgeStyle;rounded=0;orthogonalLoop=1;jettySize=auto;html=1;fontFamily=Verdana;fontSize=16;fontColor=default;" parent="1" source="IfO0auWpTc6W7PwIrmge-33" target="IfO0auWpTc6W7PwIrmge-34" edge="1">
          <mxGeometry relative="1" as="geometry" />
        </mxCell>
        <mxCell id="IfO0auWpTc6W7PwIrmge-33" value="UEFI Application wrapper" style="rounded=1;whiteSpace=wrap;html=1;fontFamily=Verdana;fontSize=16;" parent="1" vertex="1">
          <mxGeometry x="2500" y="332" width="440" height="60" as="geometry" />
        </mxCell>
        <mxCell id="IfO0auWpTc6W7PwIrmge-38" style="edgeStyle=orthogonalEdgeStyle;rounded=0;orthogonalLoop=1;jettySize=auto;html=1;fontFamily=Verdana;fontSize=16;fontColor=default;" parent="1" source="IfO0auWpTc6W7PwIrmge-34" target="IfO0auWpTc6W7PwIrmge-35" edge="1">
          <mxGeometry relative="1" as="geometry" />
        </mxCell>
        <mxCell id="IfO0auWpTc6W7PwIrmge-34" value="Test pool" style="rounded=1;whiteSpace=wrap;html=1;fontFamily=Verdana;fontSize=16;" parent="1" vertex="1">
          <mxGeometry x="2500" y="462" width="440" height="60" as="geometry" />
        </mxCell>
        <mxCell id="IfO0auWpTc6W7PwIrmge-39" style="edgeStyle=orthogonalEdgeStyle;rounded=0;orthogonalLoop=1;jettySize=auto;html=1;fontFamily=Verdana;fontSize=16;fontColor=default;" parent="1" source="IfO0auWpTc6W7PwIrmge-35" target="IfO0auWpTc6W7PwIrmge-36" edge="1">
          <mxGeometry relative="1" as="geometry" />
        </mxCell>
        <mxCell id="IfO0auWpTc6W7PwIrmge-35" value="VAL Library" style="rounded=1;whiteSpace=wrap;html=1;fontFamily=Verdana;fontSize=16;" parent="1" vertex="1">
          <mxGeometry x="2500" y="582" width="440" height="60" as="geometry" />
        </mxCell>
        <mxCell id="IfO0auWpTc6W7PwIrmge-36" value="PAL Library" style="rounded=1;whiteSpace=wrap;html=1;fontFamily=Verdana;fontSize=16;" parent="1" vertex="1">
          <mxGeometry x="2500" y="702" width="440" height="60" as="geometry" />
        </mxCell>
        <mxCell id="IfO0auWpTc6W7PwIrmge-50" style="edgeStyle=orthogonalEdgeStyle;rounded=0;orthogonalLoop=1;jettySize=auto;html=1;fontFamily=Verdana;fontSize=16;fontColor=default;" parent="1" source="IfO0auWpTc6W7PwIrmge-40" target="IfO0auWpTc6W7PwIrmge-43" edge="1">
          <mxGeometry relative="1" as="geometry" />
        </mxCell>
        <mxCell id="IfO0auWpTc6W7PwIrmge-40" value="Linux Application" style="rounded=1;whiteSpace=wrap;html=1;fontFamily=Verdana;fontSize=16;" parent="1" vertex="1">
          <mxGeometry x="3090" y="332" width="440" height="60" as="geometry" />
        </mxCell>
        <mxCell id="IfO0auWpTc6W7PwIrmge-52" style="edgeStyle=orthogonalEdgeStyle;rounded=0;orthogonalLoop=1;jettySize=auto;html=1;fontFamily=Verdana;fontSize=16;fontColor=default;" parent="1" source="IfO0auWpTc6W7PwIrmge-41" target="IfO0auWpTc6W7PwIrmge-44" edge="1">
          <mxGeometry relative="1" as="geometry" />
        </mxCell>
        <mxCell id="IfO0auWpTc6W7PwIrmge-41" value="Test pool" style="rounded=1;whiteSpace=wrap;html=1;fontFamily=Verdana;fontSize=16;" parent="1" vertex="1">
          <mxGeometry x="3130" y="562" width="360" height="50" as="geometry" />
        </mxCell>
        <mxCell id="IfO0auWpTc6W7PwIrmge-51" style="edgeStyle=orthogonalEdgeStyle;rounded=0;orthogonalLoop=1;jettySize=auto;html=1;fontFamily=Verdana;fontSize=16;fontColor=default;" parent="1" source="IfO0auWpTc6W7PwIrmge-43" target="IfO0auWpTc6W7PwIrmge-41" edge="1">
          <mxGeometry relative="1" as="geometry" />
        </mxCell>
        <mxCell id="IfO0auWpTc6W7PwIrmge-43" value="Procfs Interface" style="rounded=1;whiteSpace=wrap;html=1;fontFamily=Verdana;fontSize=16;" parent="1" vertex="1">
          <mxGeometry x="3090" y="432" width="440" height="60" as="geometry" />
        </mxCell>
        <mxCell id="IfO0auWpTc6W7PwIrmge-53" style="edgeStyle=orthogonalEdgeStyle;rounded=0;orthogonalLoop=1;jettySize=auto;html=1;fontFamily=Verdana;fontSize=16;fontColor=default;" parent="1" source="IfO0auWpTc6W7PwIrmge-44" target="IfO0auWpTc6W7PwIrmge-45" edge="1">
          <mxGeometry relative="1" as="geometry" />
        </mxCell>
        <mxCell id="IfO0auWpTc6W7PwIrmge-44" value="VAL" style="rounded=1;whiteSpace=wrap;html=1;fontFamily=Verdana;fontSize=16;" parent="1" vertex="1">
          <mxGeometry x="3130" y="642" width="360" height="50" as="geometry" />
        </mxCell>
        <mxCell id="IfO0auWpTc6W7PwIrmge-45" value="PAL" style="rounded=1;whiteSpace=wrap;html=1;fontFamily=Verdana;fontSize=16;" parent="1" vertex="1">
          <mxGeometry x="3130" y="732" width="360" height="50" as="geometry" />
        </mxCell>
        <mxCell id="IfO0auWpTc6W7PwIrmge-46" value="BSA ACS KO" style="rounded=1;whiteSpace=wrap;html=1;fontFamily=Verdana;fontSize=16;fillColor=#ffe6cc;strokeColor=#d79b00;" parent="1" vertex="1">
          <mxGeometry x="3591" y="522" width="200" height="50" as="geometry" />
        </mxCell>
        <mxCell id="IfO0auWpTc6W7PwIrmge-55" style="edgeStyle=orthogonalEdgeStyle;rounded=0;orthogonalLoop=1;jettySize=auto;html=1;entryX=1;entryY=0.25;entryDx=0;entryDy=0;fontFamily=Verdana;fontSize=16;fontColor=default;" parent="1" source="IfO0auWpTc6W7PwIrmge-48" target="IfO0auWpTc6W7PwIrmge-45" edge="1">
          <mxGeometry relative="1" as="geometry" />
        </mxCell>
        <mxCell id="IfO0auWpTc6W7PwIrmge-48" value="AHCI module" style="rounded=1;whiteSpace=wrap;html=1;fontFamily=Verdana;fontSize=16;" parent="1" vertex="1">
          <mxGeometry x="3591" y="707" width="200" height="50" as="geometry" />
        </mxCell>
        <mxCell id="IfO0auWpTc6W7PwIrmge-56" style="edgeStyle=orthogonalEdgeStyle;rounded=0;orthogonalLoop=1;jettySize=auto;html=1;entryX=1;entryY=0.75;entryDx=0;entryDy=0;fontFamily=Verdana;fontSize=16;fontColor=default;" parent="1" source="IfO0auWpTc6W7PwIrmge-49" target="IfO0auWpTc6W7PwIrmge-45" edge="1">
          <mxGeometry relative="1" as="geometry" />
        </mxCell>
        <mxCell id="IfO0auWpTc6W7PwIrmge-49" value="IOMMU module" style="rounded=1;whiteSpace=wrap;html=1;fontFamily=Verdana;fontSize=16;" parent="1" vertex="1">
          <mxGeometry x="3591" y="787" width="200" height="50" as="geometry" />
        </mxCell>
        <mxCell id="IfO0auWpTc6W7PwIrmge-54" style="edgeStyle=orthogonalEdgeStyle;rounded=0;orthogonalLoop=1;jettySize=auto;html=1;fontFamily=Verdana;fontSize=16;fontColor=default;startArrow=classic;startFill=1;endArrow=none;endFill=0;entryX=1.002;entryY=0.086;entryDx=0;entryDy=0;entryPerimeter=0;" parent="1" source="IfO0auWpTc6W7PwIrmge-46" target="IfO0auWpTc6W7PwIrmge-42" edge="1">
          <mxGeometry relative="1" as="geometry">
            <mxPoint x="3520" y="546" as="targetPoint" />
          </mxGeometry>
        </mxCell>
        <mxCell id="IfO0auWpTc6W7PwIrmge-57" style="edgeStyle=orthogonalEdgeStyle;rounded=0;orthogonalLoop=1;jettySize=auto;html=1;fontFamily=Verdana;fontSize=16;fontColor=default;" parent="1" source="IfO0auWpTc6W7PwIrmge-58" target="IfO0auWpTc6W7PwIrmge-60" edge="1">
          <mxGeometry relative="1" as="geometry" />
        </mxCell>
        <mxCell id="IfO0auWpTc6W7PwIrmge-58" value="BSA tests" style="rounded=1;whiteSpace=wrap;html=1;fontFamily=Verdana;fontSize=16;" parent="1" vertex="1">
          <mxGeometry x="1300" y="230" width="560" height="60" as="geometry" />
        </mxCell>
        <mxCell id="IfO0auWpTc6W7PwIrmge-59" style="edgeStyle=orthogonalEdgeStyle;rounded=0;orthogonalLoop=1;jettySize=auto;html=1;fontFamily=Verdana;fontSize=16;fontColor=default;" parent="1" source="IfO0auWpTc6W7PwIrmge-60" target="IfO0auWpTc6W7PwIrmge-62" edge="1">
          <mxGeometry relative="1" as="geometry" />
        </mxCell>
        <mxCell id="IfO0auWpTc6W7PwIrmge-60" value="VAL" style="rounded=1;whiteSpace=wrap;html=1;fontFamily=Verdana;fontSize=16;" parent="1" vertex="1">
          <mxGeometry x="1300" y="350" width="560" height="60" as="geometry" />
        </mxCell>
        <mxCell id="IfO0auWpTc6W7PwIrmge-61" style="edgeStyle=orthogonalEdgeStyle;rounded=0;orthogonalLoop=1;jettySize=auto;html=1;fontFamily=Verdana;fontSize=16;fontColor=default;" parent="1" source="IfO0auWpTc6W7PwIrmge-62" target="IfO0auWpTc6W7PwIrmge-64" edge="1">
          <mxGeometry relative="1" as="geometry" />
        </mxCell>
        <mxCell id="IfO0auWpTc6W7PwIrmge-62" value="PAL" style="rounded=1;whiteSpace=wrap;html=1;fontFamily=Verdana;fontSize=16;" parent="1" vertex="1">
          <mxGeometry x="1300" y="460" width="560" height="60" as="geometry" />
        </mxCell>
        <mxCell id="IfO0auWpTc6W7PwIrmge-63" value="Linux" style="rounded=1;whiteSpace=wrap;html=1;fontFamily=Verdana;fontSize=16;arcSize=8;" parent="1" vertex="1">
          <mxGeometry x="1300" y="585" width="110" height="145" as="geometry" />
        </mxCell>
        <mxCell id="IfO0auWpTc6W7PwIrmge-64" value="UEFI shell" style="rounded=1;whiteSpace=wrap;html=1;fontFamily=Verdana;fontSize=16;arcSize=8;" parent="1" vertex="1">
          <mxGeometry x="1445" y="585" width="270" height="65" as="geometry" />
        </mxCell>
        <mxCell id="IfO0auWpTc6W7PwIrmge-65" value="U-Boot" style="rounded=1;whiteSpace=wrap;html=1;fontFamily=Verdana;fontSize=16;arcSize=8;" parent="1" vertex="1">
          <mxGeometry x="1445" y="695" width="120" height="55" as="geometry" />
        </mxCell>
        <mxCell id="IfO0auWpTc6W7PwIrmge-66" value="UEFI" style="rounded=1;whiteSpace=wrap;html=1;fontFamily=Verdana;fontSize=16;arcSize=8;" parent="1" vertex="1">
          <mxGeometry x="1595" y="695" width="120" height="55" as="geometry" />
        </mxCell>
        <mxCell id="IfO0auWpTc6W7PwIrmge-67" value="Bare-metal&lt;div&gt;drivers&lt;/div&gt;" style="rounded=1;whiteSpace=wrap;html=1;fontFamily=Verdana;fontSize=16;arcSize=8;" parent="1" vertex="1">
          <mxGeometry x="1750" y="585" width="110" height="165" as="geometry" />
        </mxCell>
        <mxCell id="IfO0auWpTc6W7PwIrmge-90" style="edgeStyle=orthogonalEdgeStyle;rounded=0;orthogonalLoop=1;jettySize=auto;html=1;fontFamily=Verdana;fontSize=16;fontColor=default;" parent="1" source="IfO0auWpTc6W7PwIrmge-68" target="IfO0auWpTc6W7PwIrmge-77" edge="1">
          <mxGeometry relative="1" as="geometry" />
        </mxCell>
        <mxCell id="IfO0auWpTc6W7PwIrmge-68" value="Trusted Firmware" style="rounded=1;whiteSpace=wrap;html=1;fontFamily=Verdana;fontSize=16;" parent="1" vertex="1">
          <mxGeometry x="1300" y="880" width="560" height="60" as="geometry" />
        </mxCell>
        <mxCell id="IfO0auWpTc6W7PwIrmge-69" style="edgeStyle=orthogonalEdgeStyle;rounded=0;orthogonalLoop=1;jettySize=auto;html=1;entryX=0.098;entryY=0.992;entryDx=0;entryDy=0;entryPerimeter=0;fontFamily=Verdana;fontSize=16;fontColor=default;startArrow=classic;startFill=1;endArrow=none;endFill=0;" parent="1" source="IfO0auWpTc6W7PwIrmge-63" target="IfO0auWpTc6W7PwIrmge-62" edge="1">
          <mxGeometry relative="1" as="geometry" />
        </mxCell>
        <mxCell id="IfO0auWpTc6W7PwIrmge-70" style="edgeStyle=orthogonalEdgeStyle;rounded=0;orthogonalLoop=1;jettySize=auto;html=1;entryX=0.902;entryY=1.008;entryDx=0;entryDy=0;entryPerimeter=0;fontFamily=Verdana;fontSize=16;fontColor=default;startArrow=classic;startFill=1;endArrow=none;endFill=0;" parent="1" source="IfO0auWpTc6W7PwIrmge-67" target="IfO0auWpTc6W7PwIrmge-62" edge="1">
          <mxGeometry relative="1" as="geometry" />
        </mxCell>
        <mxCell id="IfO0auWpTc6W7PwIrmge-71" style="edgeStyle=orthogonalEdgeStyle;rounded=0;orthogonalLoop=1;jettySize=auto;html=1;entryX=0.222;entryY=0.992;entryDx=0;entryDy=0;entryPerimeter=0;fontFamily=Verdana;fontSize=16;fontColor=default;startArrow=classic;startFill=1;endArrow=none;endFill=0;" parent="1" source="IfO0auWpTc6W7PwIrmge-65" target="IfO0auWpTc6W7PwIrmge-64" edge="1">
          <mxGeometry relative="1" as="geometry" />
        </mxCell>
        <mxCell id="IfO0auWpTc6W7PwIrmge-72" style="edgeStyle=orthogonalEdgeStyle;rounded=0;orthogonalLoop=1;jettySize=auto;html=1;fontFamily=Verdana;fontSize=16;fontColor=default;startArrow=classic;startFill=1;endArrow=none;endFill=0;" parent="1" source="IfO0auWpTc6W7PwIrmge-66" edge="1">
          <mxGeometry relative="1" as="geometry">
            <mxPoint x="1655" y="651" as="targetPoint" />
            <Array as="points">
              <mxPoint x="1655" y="651" />
            </Array>
          </mxGeometry>
        </mxCell>
        <mxCell id="IfO0auWpTc6W7PwIrmge-76" style="edgeStyle=orthogonalEdgeStyle;rounded=0;orthogonalLoop=1;jettySize=auto;html=1;entryX=0.902;entryY=0.008;entryDx=0;entryDy=0;entryPerimeter=0;fontFamily=Verdana;fontSize=16;fontColor=default;" parent="1" source="IfO0auWpTc6W7PwIrmge-67" target="IfO0auWpTc6W7PwIrmge-68" edge="1">
          <mxGeometry relative="1" as="geometry" />
        </mxCell>
        <mxCell id="IfO0auWpTc6W7PwIrmge-77" value="Hardware" style="rounded=1;whiteSpace=wrap;html=1;fontFamily=Verdana;fontSize=16;arcSize=8;verticalAlign=bottom;" parent="1" vertex="1">
          <mxGeometry x="1300" y="970" width="560" height="180" as="geometry" />
        </mxCell>
        <mxCell id="IfO0auWpTc6W7PwIrmge-81" value="Watchdog" style="rounded=1;whiteSpace=wrap;html=1;fontFamily=Verdana;fontSize=16;arcSize=8;fillColor=#ffe6cc;strokeColor=#d79b00;" parent="1" vertex="1">
          <mxGeometry x="1717.5" y="1000" width="115" height="40" as="geometry" />
        </mxCell>
        <mxCell id="IfO0auWpTc6W7PwIrmge-83" value="Timers" style="rounded=1;whiteSpace=wrap;html=1;fontFamily=Verdana;fontSize=16;arcSize=8;fillColor=#ffe6cc;strokeColor=#d79b00;" parent="1" vertex="1">
          <mxGeometry x="1717.5" y="1060" width="115" height="40" as="geometry" />
        </mxCell>
        <mxCell id="IfO0auWpTc6W7PwIrmge-84" value="PCIe" style="rounded=1;whiteSpace=wrap;html=1;fontFamily=Verdana;fontSize=16;arcSize=8;fillColor=#ffe6cc;strokeColor=#d79b00;" parent="1" vertex="1">
          <mxGeometry x="1587.5" y="1000" width="115" height="40" as="geometry" />
        </mxCell>
        <mxCell id="IfO0auWpTc6W7PwIrmge-85" value="USB" style="rounded=1;whiteSpace=wrap;html=1;fontFamily=Verdana;fontSize=16;arcSize=8;fillColor=#ffe6cc;strokeColor=#d79b00;" parent="1" vertex="1">
          <mxGeometry x="1587.5" y="1060" width="115" height="40" as="geometry" />
        </mxCell>
        <mxCell id="IfO0auWpTc6W7PwIrmge-86" value="GIC" style="rounded=1;whiteSpace=wrap;html=1;fontFamily=Verdana;fontSize=16;arcSize=8;fillColor=#ffe6cc;strokeColor=#d79b00;" parent="1" vertex="1">
          <mxGeometry x="1457.5" y="1000" width="115" height="40" as="geometry" />
        </mxCell>
        <mxCell id="IfO0auWpTc6W7PwIrmge-87" value="UART" style="rounded=1;whiteSpace=wrap;html=1;fontFamily=Verdana;fontSize=16;arcSize=8;fillColor=#ffe6cc;strokeColor=#d79b00;" parent="1" vertex="1">
          <mxGeometry x="1457.5" y="1060" width="115" height="40" as="geometry" />
        </mxCell>
        <mxCell id="IfO0auWpTc6W7PwIrmge-88" value="PE" style="rounded=1;whiteSpace=wrap;html=1;fontFamily=Verdana;fontSize=16;arcSize=8;fillColor=#ffe6cc;strokeColor=#d79b00;" parent="1" vertex="1">
          <mxGeometry x="1327.5" y="1000" width="115" height="40" as="geometry" />
        </mxCell>
        <mxCell id="IfO0auWpTc6W7PwIrmge-89" value="SMMU" style="rounded=1;whiteSpace=wrap;html=1;fontFamily=Verdana;fontSize=16;arcSize=8;fillColor=#ffe6cc;strokeColor=#d79b00;" parent="1" vertex="1">
          <mxGeometry x="1327.5" y="1060" width="115" height="40" as="geometry" />
        </mxCell>
        <mxCell id="IfO0auWpTc6W7PwIrmge-93" value="Device tree" style="rounded=1;whiteSpace=wrap;html=1;fontFamily=Verdana;fontSize=16;arcSize=8;" parent="1" vertex="1">
          <mxGeometry x="1445" y="750" width="120" height="55" as="geometry" />
        </mxCell>
        <mxCell id="IfO0auWpTc6W7PwIrmge-94" value="ACPI table" style="rounded=1;whiteSpace=wrap;html=1;fontFamily=Verdana;fontSize=16;arcSize=8;" parent="1" vertex="1">
          <mxGeometry x="1595" y="750" width="120" height="55" as="geometry" />
        </mxCell>
        <mxCell id="IfO0auWpTc6W7PwIrmge-95" value="Device tree/ACPI&lt;div&gt;&amp;nbsp;table&lt;/div&gt;" style="rounded=1;whiteSpace=wrap;html=1;fontFamily=Verdana;fontSize=16;arcSize=8;" parent="1" vertex="1">
          <mxGeometry x="1300" y="730" width="110" height="70" as="geometry" />
        </mxCell>
        <mxCell id="IfO0auWpTc6W7PwIrmge-96" style="edgeStyle=orthogonalEdgeStyle;rounded=0;orthogonalLoop=1;jettySize=auto;html=1;entryX=0.098;entryY=-0.012;entryDx=0;entryDy=0;entryPerimeter=0;fontFamily=Verdana;fontSize=16;fontColor=default;" parent="1" source="IfO0auWpTc6W7PwIrmge-95" target="IfO0auWpTc6W7PwIrmge-68" edge="1">
          <mxGeometry relative="1" as="geometry" />
        </mxCell>
        <mxCell id="IfO0auWpTc6W7PwIrmge-97" style="edgeStyle=orthogonalEdgeStyle;rounded=0;orthogonalLoop=1;jettySize=auto;html=1;entryX=0.366;entryY=-0.015;entryDx=0;entryDy=0;entryPerimeter=0;fontFamily=Verdana;fontSize=16;fontColor=default;" parent="1" source="IfO0auWpTc6W7PwIrmge-93" target="IfO0auWpTc6W7PwIrmge-68" edge="1">
          <mxGeometry relative="1" as="geometry" />
        </mxCell>
        <mxCell id="IfO0auWpTc6W7PwIrmge-98" style="edgeStyle=orthogonalEdgeStyle;rounded=0;orthogonalLoop=1;jettySize=auto;html=1;entryX=0.634;entryY=-0.015;entryDx=0;entryDy=0;entryPerimeter=0;fontFamily=Verdana;fontSize=16;fontColor=default;" parent="1" source="IfO0auWpTc6W7PwIrmge-94" target="IfO0auWpTc6W7PwIrmge-68" edge="1">
          <mxGeometry relative="1" as="geometry" />
        </mxCell>
        <mxCell id="IfO0auWpTc6W7PwIrmge-99" value="main" style="rounded=1;whiteSpace=wrap;html=1;fontFamily=Verdana;fontSize=16;" parent="1" vertex="1">
          <mxGeometry x="260" y="1710" width="180" height="60" as="geometry" />
        </mxCell>
        <mxCell id="IfO0auWpTc6W7PwIrmge-100" value="initialize_test_environment" style="rounded=1;whiteSpace=wrap;html=1;fontFamily=Verdana;fontSize=16;" parent="1" vertex="1">
          <mxGeometry x="370" y="1820" width="270" height="60" as="geometry" />
        </mxCell>
        <mxCell id="IfO0auWpTc6W7PwIrmge-101" value="execute_tests_memory" style="rounded=1;whiteSpace=wrap;html=1;fontFamily=Verdana;fontSize=16;" parent="1" vertex="1">
          <mxGeometry x="370" y="1920" width="270" height="60" as="geometry" />
        </mxCell>
        <mxCell id="IfO0auWpTc6W7PwIrmge-102" value="execute_tests_peripheral" style="rounded=1;whiteSpace=wrap;html=1;fontFamily=Verdana;fontSize=16;" parent="1" vertex="1">
          <mxGeometry x="370" y="2020" width="270" height="60" as="geometry" />
        </mxCell>
        <mxCell id="IfO0auWpTc6W7PwIrmge-103" value="execute_tests_pcie" style="rounded=1;whiteSpace=wrap;html=1;fontFamily=Verdana;fontSize=16;" parent="1" vertex="1">
          <mxGeometry x="370" y="2120" width="270" height="60" as="geometry" />
        </mxCell>
        <mxCell id="IfO0auWpTc6W7PwIrmge-104" value="cleanup_test_environment" style="rounded=1;whiteSpace=wrap;html=1;fontFamily=Verdana;fontSize=16;" parent="1" vertex="1">
          <mxGeometry x="370" y="2220" width="270" height="60" as="geometry" />
        </mxCell>
        <mxCell id="IfO0auWpTc6W7PwIrmge-105" value="&lt;font style=&quot;font-size: 36px;&quot;&gt;SBSA&lt;/font&gt;" style="text;html=1;align=center;verticalAlign=middle;whiteSpace=wrap;rounded=0;fontFamily=Verdana;fontSize=16;fontColor=default;" parent="1" vertex="1">
          <mxGeometry x="955" y="1580" width="260" height="60" as="geometry" />
        </mxCell>
        <mxCell id="IfO0auWpTc6W7PwIrmge-122" style="edgeStyle=orthogonalEdgeStyle;rounded=0;orthogonalLoop=1;jettySize=auto;html=1;entryX=0;entryY=0.5;entryDx=0;entryDy=0;fontFamily=Verdana;fontSize=16;fontColor=default;" parent="1" source="IfO0auWpTc6W7PwIrmge-106" target="IfO0auWpTc6W7PwIrmge-107" edge="1">
          <mxGeometry relative="1" as="geometry" />
        </mxCell>
        <mxCell id="IfO0auWpTc6W7PwIrmge-123" style="edgeStyle=orthogonalEdgeStyle;rounded=0;orthogonalLoop=1;jettySize=auto;html=1;entryX=0;entryY=0.5;entryDx=0;entryDy=0;fontFamily=Verdana;fontSize=16;fontColor=default;" parent="1" source="IfO0auWpTc6W7PwIrmge-106" target="IfO0auWpTc6W7PwIrmge-108" edge="1">
          <mxGeometry relative="1" as="geometry" />
        </mxCell>
        <mxCell id="IfO0auWpTc6W7PwIrmge-124" style="edgeStyle=orthogonalEdgeStyle;rounded=0;orthogonalLoop=1;jettySize=auto;html=1;entryX=0;entryY=0.5;entryDx=0;entryDy=0;fontFamily=Verdana;fontSize=16;fontColor=default;" parent="1" source="IfO0auWpTc6W7PwIrmge-106" target="IfO0auWpTc6W7PwIrmge-109" edge="1">
          <mxGeometry relative="1" as="geometry" />
        </mxCell>
        <mxCell id="IfO0auWpTc6W7PwIrmge-125" style="edgeStyle=orthogonalEdgeStyle;rounded=0;orthogonalLoop=1;jettySize=auto;html=1;entryX=0;entryY=0.5;entryDx=0;entryDy=0;fontFamily=Verdana;fontSize=16;fontColor=default;" parent="1" source="IfO0auWpTc6W7PwIrmge-106" target="IfO0auWpTc6W7PwIrmge-112" edge="1">
          <mxGeometry relative="1" as="geometry" />
        </mxCell>
        <mxCell id="IfO0auWpTc6W7PwIrmge-106" value="main" style="rounded=1;whiteSpace=wrap;html=1;fontFamily=Verdana;fontSize=16;" parent="1" vertex="1">
          <mxGeometry x="990" y="1724" width="180" height="60" as="geometry" />
        </mxCell>
        <mxCell id="IfO0auWpTc6W7PwIrmge-107" value="initialize_test_environment" style="rounded=1;whiteSpace=wrap;html=1;fontFamily=Verdana;fontSize=16;" parent="1" vertex="1">
          <mxGeometry x="1150" y="1840" width="270" height="60" as="geometry" />
        </mxCell>
        <mxCell id="IfO0auWpTc6W7PwIrmge-108" value="execute_tests_smmu" style="rounded=1;whiteSpace=wrap;html=1;fontFamily=Verdana;fontSize=16;" parent="1" vertex="1">
          <mxGeometry x="1150" y="1990" width="270" height="60" as="geometry" />
        </mxCell>
        <mxCell id="IfO0auWpTc6W7PwIrmge-118" style="edgeStyle=orthogonalEdgeStyle;rounded=0;orthogonalLoop=1;jettySize=auto;html=1;entryX=0;entryY=0.5;entryDx=0;entryDy=0;fontFamily=Verdana;fontSize=16;fontColor=default;" parent="1" source="IfO0auWpTc6W7PwIrmge-109" target="IfO0auWpTc6W7PwIrmge-115" edge="1">
          <mxGeometry relative="1" as="geometry" />
        </mxCell>
        <mxCell id="IfO0auWpTc6W7PwIrmge-120" style="edgeStyle=orthogonalEdgeStyle;rounded=0;orthogonalLoop=1;jettySize=auto;html=1;entryX=0;entryY=0.5;entryDx=0;entryDy=0;fontFamily=Verdana;fontSize=16;fontColor=default;" parent="1" source="IfO0auWpTc6W7PwIrmge-109" target="IfO0auWpTc6W7PwIrmge-116" edge="1">
          <mxGeometry relative="1" as="geometry" />
        </mxCell>
        <mxCell id="IfO0auWpTc6W7PwIrmge-121" style="edgeStyle=orthogonalEdgeStyle;rounded=0;orthogonalLoop=1;jettySize=auto;html=1;entryX=0;entryY=0.5;entryDx=0;entryDy=0;fontFamily=Verdana;fontSize=16;fontColor=default;" parent="1" source="IfO0auWpTc6W7PwIrmge-109" target="IfO0auWpTc6W7PwIrmge-117" edge="1">
          <mxGeometry relative="1" as="geometry" />
        </mxCell>
        <mxCell id="IfO0auWpTc6W7PwIrmge-109" value="execute_tests_pcie" style="rounded=1;whiteSpace=wrap;html=1;fontFamily=Verdana;fontSize=16;" parent="1" vertex="1">
          <mxGeometry x="1150" y="2090" width="270" height="60" as="geometry" />
        </mxCell>
        <mxCell id="IfO0auWpTc6W7PwIrmge-112" value="cleanup_test_environment" style="rounded=1;whiteSpace=wrap;html=1;fontFamily=Verdana;fontSize=16;" parent="1" vertex="1">
          <mxGeometry x="1150" y="2230" width="270" height="60" as="geometry" />
        </mxCell>
        <mxCell id="IfO0auWpTc6W7PwIrmge-136" style="edgeStyle=orthogonalEdgeStyle;rounded=0;orthogonalLoop=1;jettySize=auto;html=1;entryX=0;entryY=0.25;entryDx=0;entryDy=0;fontFamily=Verdana;fontSize=16;fontColor=default;" parent="1" source="IfO0auWpTc6W7PwIrmge-115" target="IfO0auWpTc6W7PwIrmge-134" edge="1">
          <mxGeometry relative="1" as="geometry" />
        </mxCell>
        <mxCell id="IfO0auWpTc6W7PwIrmge-115" value="call_update_skip_list" style="rounded=1;whiteSpace=wrap;html=1;fontFamily=Verdana;fontSize=16;" parent="1" vertex="1">
          <mxGeometry x="1690" y="1980" width="270" height="60" as="geometry" />
        </mxCell>
        <mxCell id="IfO0auWpTc6W7PwIrmge-137" style="edgeStyle=orthogonalEdgeStyle;rounded=0;orthogonalLoop=1;jettySize=auto;html=1;entryX=0;entryY=0.75;entryDx=0;entryDy=0;fontFamily=Verdana;fontSize=16;fontColor=default;" parent="1" source="IfO0auWpTc6W7PwIrmge-116" target="IfO0auWpTc6W7PwIrmge-134" edge="1">
          <mxGeometry relative="1" as="geometry" />
        </mxCell>
        <mxCell id="IfO0auWpTc6W7PwIrmge-116" value="call_drv_execute_test" style="rounded=1;whiteSpace=wrap;html=1;fontFamily=Verdana;fontSize=16;" parent="1" vertex="1">
          <mxGeometry x="1690" y="2090" width="270" height="60" as="geometry" />
        </mxCell>
        <mxCell id="IfO0auWpTc6W7PwIrmge-129" style="edgeStyle=orthogonalEdgeStyle;rounded=0;orthogonalLoop=1;jettySize=auto;html=1;entryX=0;entryY=0.5;entryDx=0;entryDy=0;fontFamily=Verdana;fontSize=16;fontColor=default;" parent="1" source="IfO0auWpTc6W7PwIrmge-117" target="IfO0auWpTc6W7PwIrmge-127" edge="1">
          <mxGeometry relative="1" as="geometry" />
        </mxCell>
        <mxCell id="IfO0auWpTc6W7PwIrmge-130" style="edgeStyle=orthogonalEdgeStyle;rounded=0;orthogonalLoop=1;jettySize=auto;html=1;entryX=0;entryY=0.5;entryDx=0;entryDy=0;fontFamily=Verdana;fontSize=16;fontColor=default;" parent="1" source="IfO0auWpTc6W7PwIrmge-117" target="IfO0auWpTc6W7PwIrmge-128" edge="1">
          <mxGeometry relative="1" as="geometry" />
        </mxCell>
        <mxCell id="IfO0auWpTc6W7PwIrmge-117" value="call_drv_wait_for_completion" style="rounded=1;whiteSpace=wrap;html=1;fontFamily=Verdana;fontSize=16;" parent="1" vertex="1">
          <mxGeometry x="1690" y="2250" width="270" height="60" as="geometry" />
        </mxCell>
        <mxCell id="IfO0auWpTc6W7PwIrmge-126" value="&lt;div&gt;typedef&lt;/div&gt;&lt;div&gt;struct __SBSA_DRV_PARMS__&lt;/div&gt;&lt;div&gt;{&lt;/div&gt;&lt;div&gt;&amp;nbsp; &amp;nbsp; unsigned int&amp;nbsp; &amp;nbsp; api_num;&lt;/div&gt;&lt;div&gt;&amp;nbsp; &amp;nbsp; unsigned int&amp;nbsp; &amp;nbsp; num_pe;&lt;/div&gt;&lt;div&gt;&amp;nbsp; &amp;nbsp; unsigned int&amp;nbsp; &amp;nbsp; level;&lt;/div&gt;&lt;div&gt;&amp;nbsp; &amp;nbsp; unsigned long&amp;nbsp; &amp;nbsp;arg0;&lt;/div&gt;&lt;div&gt;&amp;nbsp; &amp;nbsp; unsigned long&amp;nbsp; &amp;nbsp;arg1;&lt;/div&gt;&lt;div&gt;&amp;nbsp; &amp;nbsp; unsigned long&amp;nbsp; &amp;nbsp;arg2;&lt;/div&gt;&lt;div&gt;} sbsa_drv_parms_t;&lt;/div&gt;" style="rounded=1;whiteSpace=wrap;html=1;fontFamily=Verdana;fontSize=16;arcSize=4;align=left;" parent="1" vertex="1">
          <mxGeometry x="1880" y="1664" width="260" height="226" as="geometry" />
        </mxCell>
        <mxCell id="IfO0auWpTc6W7PwIrmge-127" value="call_drv_get_status" style="rounded=1;whiteSpace=wrap;html=1;fontFamily=Verdana;fontSize=16;" parent="1" vertex="1">
          <mxGeometry x="2090" y="2195" width="270" height="60" as="geometry" />
        </mxCell>
        <mxCell id="IfO0auWpTc6W7PwIrmge-138" style="edgeStyle=orthogonalEdgeStyle;rounded=0;orthogonalLoop=1;jettySize=auto;html=1;fontFamily=Verdana;fontSize=16;fontColor=default;" parent="1" source="IfO0auWpTc6W7PwIrmge-128" target="IfO0auWpTc6W7PwIrmge-131" edge="1">
          <mxGeometry relative="1" as="geometry" />
        </mxCell>
        <mxCell id="IfO0auWpTc6W7PwIrmge-128" value="read_from_proc_sbsa_msg" style="rounded=1;whiteSpace=wrap;html=1;fontFamily=Verdana;fontSize=16;" parent="1" vertex="1">
          <mxGeometry x="2090" y="2305" width="270" height="60" as="geometry" />
        </mxCell>
        <mxCell id="IfO0auWpTc6W7PwIrmge-131" value="/proc/sbsa_msg" style="rounded=1;whiteSpace=wrap;html=1;fontFamily=Verdana;fontSize=16;fillColor=#ffe6cc;strokeColor=#d79b00;" parent="1" vertex="1">
          <mxGeometry x="2420" y="2305" width="190" height="60" as="geometry" />
        </mxCell>
        <mxCell id="IfO0auWpTc6W7PwIrmge-134" value="/proc/sbsa" style="rounded=1;whiteSpace=wrap;html=1;fontFamily=Verdana;fontSize=16;fillColor=#ffe6cc;strokeColor=#d79b00;" parent="1" vertex="1">
          <mxGeometry x="2420" y="2040" width="190" height="60" as="geometry" />
        </mxCell>
        <mxCell id="IfO0auWpTc6W7PwIrmge-139" value="&lt;font style=&quot;font-size: 36px;&quot;&gt;Linux ACS&amp;nbsp;&lt;/font&gt;" style="text;html=1;align=left;verticalAlign=middle;whiteSpace=wrap;rounded=0;fontFamily=Verdana;fontSize=16;fontColor=default;" parent="1" vertex="1">
          <mxGeometry x="955" y="2750" width="290" height="60" as="geometry" />
        </mxCell>
        <mxCell id="IfO0auWpTc6W7PwIrmge-141" value="&lt;div&gt;&lt;font style=&quot;font-size: 36px;&quot;&gt;acs-drv/files/sbsa_acs_drv.h&lt;br&gt;&lt;/font&gt;&lt;/div&gt;&lt;div&gt;&lt;font style=&quot;font-size: 36px;&quot;&gt;acs-drv/files/sbsa_acs_drv.c&lt;/font&gt;&lt;/div&gt;" style="text;html=1;align=left;verticalAlign=middle;whiteSpace=wrap;rounded=0;fontFamily=Verdana;fontSize=16;fontColor=default;" parent="1" vertex="1">
          <mxGeometry x="955" y="2853" width="720" height="140" as="geometry" />
        </mxCell>
        <mxCell id="IfO0auWpTc6W7PwIrmge-147" style="edgeStyle=orthogonalEdgeStyle;rounded=0;orthogonalLoop=1;jettySize=auto;html=1;fontFamily=Verdana;fontSize=16;fontColor=default;" parent="1" source="IfO0auWpTc6W7PwIrmge-142" target="IfO0auWpTc6W7PwIrmge-145" edge="1">
          <mxGeometry relative="1" as="geometry" />
        </mxCell>
        <mxCell id="IfO0auWpTc6W7PwIrmge-148" style="edgeStyle=orthogonalEdgeStyle;rounded=0;orthogonalLoop=1;jettySize=auto;html=1;entryX=0;entryY=0.5;entryDx=0;entryDy=0;fontFamily=Verdana;fontSize=16;fontColor=default;" parent="1" source="IfO0auWpTc6W7PwIrmge-142" target="IfO0auWpTc6W7PwIrmge-146" edge="1">
          <mxGeometry relative="1" as="geometry" />
        </mxCell>
        <mxCell id="IfO0auWpTc6W7PwIrmge-142" value="init_sbsaproc" style="rounded=1;whiteSpace=wrap;html=1;fontFamily=Verdana;fontSize=16;" parent="1" vertex="1">
          <mxGeometry x="1280" y="3080" width="270" height="60" as="geometry" />
        </mxCell>
        <mxCell id="IfO0auWpTc6W7PwIrmge-154" style="edgeStyle=orthogonalEdgeStyle;rounded=0;orthogonalLoop=1;jettySize=auto;html=1;entryX=0;entryY=0.5;entryDx=0;entryDy=0;fontFamily=Verdana;fontSize=16;fontColor=default;" parent="1" source="IfO0auWpTc6W7PwIrmge-143" target="IfO0auWpTc6W7PwIrmge-142" edge="1">
          <mxGeometry relative="1" as="geometry" />
        </mxCell>
        <mxCell id="IfO0auWpTc6W7PwIrmge-155" style="edgeStyle=orthogonalEdgeStyle;rounded=0;orthogonalLoop=1;jettySize=auto;html=1;entryX=0;entryY=0.5;entryDx=0;entryDy=0;fontFamily=Verdana;fontSize=16;fontColor=default;" parent="1" source="IfO0auWpTc6W7PwIrmge-143" target="IfO0auWpTc6W7PwIrmge-144" edge="1">
          <mxGeometry relative="1" as="geometry" />
        </mxCell>
        <mxCell id="IfO0auWpTc6W7PwIrmge-143" value="sbsa.ko" style="rounded=1;whiteSpace=wrap;html=1;fontFamily=Verdana;fontSize=16;fillColor=#ffe6cc;strokeColor=#d79b00;" parent="1" vertex="1">
          <mxGeometry x="995" y="3190" width="140" height="60" as="geometry" />
        </mxCell>
        <mxCell id="IfO0auWpTc6W7PwIrmge-152" style="edgeStyle=orthogonalEdgeStyle;rounded=0;orthogonalLoop=1;jettySize=auto;html=1;entryX=0;entryY=0.5;entryDx=0;entryDy=0;fontFamily=Verdana;fontSize=16;fontColor=default;" parent="1" source="IfO0auWpTc6W7PwIrmge-144" target="IfO0auWpTc6W7PwIrmge-149" edge="1">
          <mxGeometry relative="1" as="geometry" />
        </mxCell>
        <mxCell id="IfO0auWpTc6W7PwIrmge-153" style="edgeStyle=orthogonalEdgeStyle;rounded=0;orthogonalLoop=1;jettySize=auto;html=1;fontFamily=Verdana;fontSize=16;fontColor=default;entryX=0;entryY=0.5;entryDx=0;entryDy=0;" parent="1" source="IfO0auWpTc6W7PwIrmge-144" target="IfO0auWpTc6W7PwIrmge-150" edge="1">
          <mxGeometry relative="1" as="geometry">
            <mxPoint x="1710" y="3490" as="targetPoint" />
          </mxGeometry>
        </mxCell>
        <mxCell id="IfO0auWpTc6W7PwIrmge-144" value="exit_sbsaproc" style="rounded=1;whiteSpace=wrap;html=1;fontFamily=Verdana;fontSize=16;" parent="1" vertex="1">
          <mxGeometry x="1280" y="3390" width="270" height="60" as="geometry" />
        </mxCell>
        <mxCell id="IfO0auWpTc6W7PwIrmge-145" value="proc_create(&quot;sbsa&quot;" style="rounded=1;whiteSpace=wrap;html=1;fontFamily=Verdana;fontSize=16;" parent="1" vertex="1">
          <mxGeometry x="1715" y="3030" width="306" height="60" as="geometry" />
        </mxCell>
        <mxCell id="IfO0auWpTc6W7PwIrmge-159" style="edgeStyle=orthogonalEdgeStyle;rounded=0;orthogonalLoop=1;jettySize=auto;html=1;entryX=0;entryY=0.5;entryDx=0;entryDy=0;fontFamily=Verdana;fontSize=16;fontColor=default;" parent="1" source="IfO0auWpTc6W7PwIrmge-146" target="IfO0auWpTc6W7PwIrmge-156" edge="1">
          <mxGeometry relative="1" as="geometry" />
        </mxCell>
        <mxCell id="IfO0auWpTc6W7PwIrmge-146" value="proc_create(&quot;sbsa_msg&quot;" style="rounded=1;whiteSpace=wrap;html=1;fontFamily=Verdana;fontSize=16;" parent="1" vertex="1">
          <mxGeometry x="1715" y="3170" width="306" height="60" as="geometry" />
        </mxCell>
        <mxCell id="IfO0auWpTc6W7PwIrmge-149" value="remove_proc_entry(&quot;sbsa&quot;" style="rounded=1;whiteSpace=wrap;html=1;fontFamily=Verdana;fontSize=16;" parent="1" vertex="1">
          <mxGeometry x="1715" y="3330" width="306" height="60" as="geometry" />
        </mxCell>
        <mxCell id="IfO0auWpTc6W7PwIrmge-150" value="remove_proc_entry(&quot;sbsa_msg&quot;" style="rounded=1;whiteSpace=wrap;html=1;fontFamily=Verdana;fontSize=16;" parent="1" vertex="1">
          <mxGeometry x="1715" y="3450" width="306" height="60" as="geometry" />
        </mxCell>
        <mxCell id="IfO0auWpTc6W7PwIrmge-156" value="&lt;div&gt;const struct proc_ops sbsa_msg_fops = {&lt;/div&gt;&lt;div&gt;&amp;nbsp; &amp;nbsp; .proc_open = sbsa_proc_open,&lt;/div&gt;&lt;div&gt;&amp;nbsp; &amp;nbsp; .proc_read = sbsa_msg_proc_read,&lt;/div&gt;&lt;div&gt;&amp;nbsp; &amp;nbsp; .proc_release = sbsa_proc_release&lt;/div&gt;&lt;div&gt;};&lt;/div&gt;" style="rounded=1;whiteSpace=wrap;html=1;fontFamily=Verdana;fontSize=16;arcSize=4;align=left;" parent="1" vertex="1">
          <mxGeometry x="2150" y="3270" width="390" height="140" as="geometry" />
        </mxCell>
        <mxCell id="IfO0auWpTc6W7PwIrmge-157" value="&lt;div style=&quot;&quot;&gt;static const struct proc_ops fops = {&lt;/div&gt;&lt;div style=&quot;&quot;&gt;&amp;nbsp; &amp;nbsp; .proc_open = sbsa_proc_open,&lt;/div&gt;&lt;div style=&quot;&quot;&gt;&amp;nbsp; &amp;nbsp; .proc_read = sbsa_proc_read,&lt;/div&gt;&lt;div style=&quot;&quot;&gt;&amp;nbsp; &amp;nbsp; .proc_write = sbsa_proc_write,&lt;/div&gt;&lt;div style=&quot;&quot;&gt;&amp;nbsp; &amp;nbsp; .proc_release = sbsa_proc_release&lt;/div&gt;&lt;div style=&quot;&quot;&gt;};&lt;/div&gt;" style="rounded=1;whiteSpace=wrap;html=1;fontFamily=Verdana;fontSize=16;arcSize=4;align=left;" parent="1" vertex="1">
          <mxGeometry x="2140" y="2940" width="390" height="140" as="geometry" />
        </mxCell>
        <mxCell id="IfO0auWpTc6W7PwIrmge-158" style="edgeStyle=orthogonalEdgeStyle;rounded=0;orthogonalLoop=1;jettySize=auto;html=1;entryX=0;entryY=0.426;entryDx=0;entryDy=0;entryPerimeter=0;fontFamily=Verdana;fontSize=16;fontColor=default;" parent="1" source="IfO0auWpTc6W7PwIrmge-145" target="IfO0auWpTc6W7PwIrmge-157" edge="1">
          <mxGeometry relative="1" as="geometry" />
        </mxCell>
        <mxCell id="IfO0auWpTc6W7PwIrmge-171" style="edgeStyle=orthogonalEdgeStyle;rounded=0;orthogonalLoop=1;jettySize=auto;html=1;fontFamily=Verdana;fontSize=16;fontColor=default;" parent="1" source="IfO0auWpTc6W7PwIrmge-161" target="IfO0auWpTc6W7PwIrmge-162" edge="1">
          <mxGeometry relative="1" as="geometry" />
        </mxCell>
        <mxCell id="IfO0auWpTc6W7PwIrmge-161" value="sbsa_proc_write" style="rounded=1;whiteSpace=wrap;html=1;fontFamily=Verdana;fontSize=16;" parent="1" vertex="1">
          <mxGeometry x="3367" y="2853" width="306" height="60" as="geometry" />
        </mxCell>
        <mxCell id="IfO0auWpTc6W7PwIrmge-190" style="edgeStyle=orthogonalEdgeStyle;rounded=0;orthogonalLoop=1;jettySize=auto;html=1;fontFamily=Verdana;fontSize=16;fontColor=default;" parent="1" source="IfO0auWpTc6W7PwIrmge-162" target="IfO0auWpTc6W7PwIrmge-164" edge="1">
          <mxGeometry relative="1" as="geometry" />
        </mxCell>
        <mxCell id="IfO0auWpTc6W7PwIrmge-191" style="edgeStyle=orthogonalEdgeStyle;rounded=0;orthogonalLoop=1;jettySize=auto;html=1;fontFamily=Verdana;fontSize=16;fontColor=default;" parent="1" source="IfO0auWpTc6W7PwIrmge-162" target="IfO0auWpTc6W7PwIrmge-165" edge="1">
          <mxGeometry relative="1" as="geometry">
            <Array as="points">
              <mxPoint x="3520" y="3140" />
              <mxPoint x="3854" y="3140" />
            </Array>
          </mxGeometry>
        </mxCell>
        <mxCell id="IfO0auWpTc6W7PwIrmge-162" value="val_glue_execute_command" style="rounded=1;whiteSpace=wrap;html=1;fontFamily=Verdana;fontSize=16;" parent="1" vertex="1">
          <mxGeometry x="3367" y="2990" width="306" height="60" as="geometry" />
        </mxCell>
        <mxCell id="IfO0auWpTc6W7PwIrmge-174" style="edgeStyle=orthogonalEdgeStyle;rounded=0;orthogonalLoop=1;jettySize=auto;html=1;fontFamily=Verdana;fontSize=16;fontColor=default;" parent="1" source="IfO0auWpTc6W7PwIrmge-164" target="IfO0auWpTc6W7PwIrmge-166" edge="1">
          <mxGeometry relative="1" as="geometry">
            <Array as="points">
              <mxPoint x="3214" y="3400" />
            </Array>
          </mxGeometry>
        </mxCell>
        <mxCell id="IfO0auWpTc6W7PwIrmge-175" style="edgeStyle=orthogonalEdgeStyle;rounded=0;orthogonalLoop=1;jettySize=auto;html=1;fontFamily=Verdana;fontSize=16;fontColor=default;" parent="1" source="IfO0auWpTc6W7PwIrmge-164" target="IfO0auWpTc6W7PwIrmge-167" edge="1">
          <mxGeometry relative="1" as="geometry">
            <Array as="points">
              <mxPoint x="3214" y="3520" />
            </Array>
          </mxGeometry>
        </mxCell>
        <mxCell id="IfO0auWpTc6W7PwIrmge-176" style="edgeStyle=orthogonalEdgeStyle;rounded=0;orthogonalLoop=1;jettySize=auto;html=1;fontFamily=Verdana;fontSize=16;fontColor=default;" parent="1" source="IfO0auWpTc6W7PwIrmge-164" target="IfO0auWpTc6W7PwIrmge-168" edge="1">
          <mxGeometry relative="1" as="geometry">
            <Array as="points">
              <mxPoint x="3214" y="3620" />
            </Array>
          </mxGeometry>
        </mxCell>
        <mxCell id="IfO0auWpTc6W7PwIrmge-179" style="edgeStyle=orthogonalEdgeStyle;rounded=0;orthogonalLoop=1;jettySize=auto;html=1;entryX=0;entryY=0.5;entryDx=0;entryDy=0;fontFamily=Verdana;fontSize=16;fontColor=default;" parent="1" source="IfO0auWpTc6W7PwIrmge-164" target="IfO0auWpTc6W7PwIrmge-170" edge="1">
          <mxGeometry relative="1" as="geometry" />
        </mxCell>
        <mxCell id="IfO0auWpTc6W7PwIrmge-164" value="val_sbsa_smmu_execute_tests" style="rounded=1;whiteSpace=wrap;html=1;fontFamily=Verdana;fontSize=16;" parent="1" vertex="1">
          <mxGeometry x="3061" y="3230" width="306" height="60" as="geometry" />
        </mxCell>
        <mxCell id="IfO0auWpTc6W7PwIrmge-181" style="edgeStyle=orthogonalEdgeStyle;rounded=0;orthogonalLoop=1;jettySize=auto;html=1;entryX=1;entryY=0.5;entryDx=0;entryDy=0;fontFamily=Verdana;fontSize=16;fontColor=default;" parent="1" source="IfO0auWpTc6W7PwIrmge-165" target="IfO0auWpTc6W7PwIrmge-180" edge="1">
          <mxGeometry relative="1" as="geometry" />
        </mxCell>
        <mxCell id="IfO0auWpTc6W7PwIrmge-185" style="edgeStyle=orthogonalEdgeStyle;rounded=0;orthogonalLoop=1;jettySize=auto;html=1;entryX=0;entryY=0.5;entryDx=0;entryDy=0;fontFamily=Verdana;fontSize=16;fontColor=default;" parent="1" source="IfO0auWpTc6W7PwIrmge-165" target="IfO0auWpTc6W7PwIrmge-182" edge="1">
          <mxGeometry relative="1" as="geometry" />
        </mxCell>
        <mxCell id="IfO0auWpTc6W7PwIrmge-193" style="edgeStyle=orthogonalEdgeStyle;rounded=0;orthogonalLoop=1;jettySize=auto;html=1;entryX=0;entryY=0.5;entryDx=0;entryDy=0;fontFamily=Verdana;fontSize=16;fontColor=default;" parent="1" source="IfO0auWpTc6W7PwIrmge-165" target="IfO0auWpTc6W7PwIrmge-192" edge="1">
          <mxGeometry relative="1" as="geometry" />
        </mxCell>
        <mxCell id="IfO0auWpTc6W7PwIrmge-165" value="val_sbsa_pcie_execute_tests" style="rounded=1;whiteSpace=wrap;html=1;fontFamily=Verdana;fontSize=16;" parent="1" vertex="1">
          <mxGeometry x="3701" y="3230" width="306" height="60" as="geometry" />
        </mxCell>
        <mxCell id="IfO0auWpTc6W7PwIrmge-166" value="val_check_skip_module" style="rounded=1;whiteSpace=wrap;html=1;fontFamily=Verdana;fontSize=16;" parent="1" vertex="1">
          <mxGeometry x="2840" y="3370" width="306" height="60" as="geometry" />
        </mxCell>
        <mxCell id="IfO0auWpTc6W7PwIrmge-167" value="val_iovirt_get_smmu_info" style="rounded=1;whiteSpace=wrap;html=1;fontFamily=Verdana;fontSize=16;" parent="1" vertex="1">
          <mxGeometry x="2840" y="3490" width="306" height="60" as="geometry" />
        </mxCell>
        <mxCell id="IfO0auWpTc6W7PwIrmge-168" value="i016_entry" style="rounded=1;whiteSpace=wrap;html=1;fontFamily=Verdana;fontSize=16;" parent="1" vertex="1">
          <mxGeometry x="3351" y="3590" width="220" height="60" as="geometry" />
        </mxCell>
        <mxCell id="IfO0auWpTc6W7PwIrmge-170" value="..." style="rounded=1;whiteSpace=wrap;html=1;fontFamily=Verdana;fontSize=16;" parent="1" vertex="1">
          <mxGeometry x="3351" y="3710" width="220" height="60" as="geometry" />
        </mxCell>
        <mxCell id="IfO0auWpTc6W7PwIrmge-180" value="val_check_skip_module" style="rounded=1;whiteSpace=wrap;html=1;fontFamily=Verdana;fontSize=16;" parent="1" vertex="1">
          <mxGeometry x="3501" y="3400" width="306" height="60" as="geometry" />
        </mxCell>
        <mxCell id="IfO0auWpTc6W7PwIrmge-182" value="p009_entry" style="rounded=1;whiteSpace=wrap;html=1;fontFamily=Verdana;fontSize=16;" parent="1" vertex="1">
          <mxGeometry x="3961" y="3585" width="220" height="60" as="geometry" />
        </mxCell>
        <mxCell id="IfO0auWpTc6W7PwIrmge-192" value="..." style="rounded=1;whiteSpace=wrap;html=1;fontFamily=Verdana;fontSize=16;" parent="1" vertex="1">
          <mxGeometry x="3961" y="3710" width="220" height="60" as="geometry" />
        </mxCell>
        <mxCell id="IfO0auWpTc6W7PwIrmge-203" style="edgeStyle=orthogonalEdgeStyle;rounded=0;orthogonalLoop=1;jettySize=auto;html=1;entryX=0;entryY=0.5;entryDx=0;entryDy=0;fontFamily=Verdana;fontSize=16;fontColor=default;" parent="1" source="IfO0auWpTc6W7PwIrmge-194" target="IfO0auWpTc6W7PwIrmge-195" edge="1">
          <mxGeometry relative="1" as="geometry" />
        </mxCell>
        <mxCell id="IfO0auWpTc6W7PwIrmge-204" style="edgeStyle=orthogonalEdgeStyle;rounded=0;orthogonalLoop=1;jettySize=auto;html=1;entryX=0;entryY=0.5;entryDx=0;entryDy=0;fontFamily=Verdana;fontSize=16;fontColor=default;" parent="1" source="IfO0auWpTc6W7PwIrmge-194" target="IfO0auWpTc6W7PwIrmge-196" edge="1">
          <mxGeometry relative="1" as="geometry" />
        </mxCell>
        <mxCell id="IfO0auWpTc6W7PwIrmge-205" style="edgeStyle=orthogonalEdgeStyle;rounded=0;orthogonalLoop=1;jettySize=auto;html=1;entryX=0;entryY=0.5;entryDx=0;entryDy=0;fontFamily=Verdana;fontSize=16;fontColor=default;" parent="1" source="IfO0auWpTc6W7PwIrmge-194" target="IfO0auWpTc6W7PwIrmge-197" edge="1">
          <mxGeometry relative="1" as="geometry" />
        </mxCell>
        <mxCell id="IfO0auWpTc6W7PwIrmge-206" style="edgeStyle=orthogonalEdgeStyle;rounded=0;orthogonalLoop=1;jettySize=auto;html=1;entryX=0;entryY=0.5;entryDx=0;entryDy=0;fontFamily=Verdana;fontSize=16;fontColor=default;" parent="1" source="IfO0auWpTc6W7PwIrmge-194" target="IfO0auWpTc6W7PwIrmge-198" edge="1">
          <mxGeometry relative="1" as="geometry" />
        </mxCell>
        <mxCell id="IfO0auWpTc6W7PwIrmge-194" value="os_p061_entry" style="rounded=1;whiteSpace=wrap;html=1;fontFamily=Verdana;fontSize=16;fillColor=#dae8fc;strokeColor=#6c8ebf;" parent="1" vertex="1">
          <mxGeometry x="4284" y="5460" width="220" height="60" as="geometry" />
        </mxCell>
        <mxCell id="IfO0auWpTc6W7PwIrmge-195" value="val_initialize_test" style="rounded=1;whiteSpace=wrap;html=1;fontFamily=Verdana;fontSize=16;" parent="1" vertex="1">
          <mxGeometry x="4474" y="5600" width="220" height="60" as="geometry" />
        </mxCell>
        <mxCell id="IfO0auWpTc6W7PwIrmge-207" style="edgeStyle=orthogonalEdgeStyle;rounded=0;orthogonalLoop=1;jettySize=auto;html=1;entryX=0;entryY=0.5;entryDx=0;entryDy=0;fontFamily=Verdana;fontSize=16;fontColor=default;" parent="1" source="IfO0auWpTc6W7PwIrmge-196" target="IfO0auWpTc6W7PwIrmge-199" edge="1">
          <mxGeometry relative="1" as="geometry" />
        </mxCell>
        <mxCell id="IfO0auWpTc6W7PwIrmge-196" value="val_run_test_payload" style="rounded=1;whiteSpace=wrap;html=1;fontFamily=Verdana;fontSize=16;" parent="1" vertex="1">
          <mxGeometry x="4474" y="5700" width="220" height="60" as="geometry" />
        </mxCell>
        <mxCell id="IfO0auWpTc6W7PwIrmge-197" value="val_check_for_error" style="rounded=1;whiteSpace=wrap;html=1;fontFamily=Verdana;fontSize=16;" parent="1" vertex="1">
          <mxGeometry x="4474" y="5800" width="220" height="60" as="geometry" />
        </mxCell>
        <mxCell id="IfO0auWpTc6W7PwIrmge-198" value="val_report_status" style="rounded=1;whiteSpace=wrap;html=1;fontFamily=Verdana;fontSize=16;" parent="1" vertex="1">
          <mxGeometry x="4474" y="5890" width="220" height="60" as="geometry" />
        </mxCell>
        <mxCell id="IfO0auWpTc6W7PwIrmge-208" style="edgeStyle=orthogonalEdgeStyle;rounded=0;orthogonalLoop=1;jettySize=auto;html=1;entryX=0;entryY=0.5;entryDx=0;entryDy=0;fontFamily=Verdana;fontSize=16;fontColor=default;" parent="1" source="IfO0auWpTc6W7PwIrmge-199" target="IfO0auWpTc6W7PwIrmge-200" edge="1">
          <mxGeometry relative="1" as="geometry" />
        </mxCell>
        <mxCell id="IfO0auWpTc6W7PwIrmge-209" style="edgeStyle=orthogonalEdgeStyle;rounded=0;orthogonalLoop=1;jettySize=auto;html=1;entryX=0;entryY=0.5;entryDx=0;entryDy=0;fontFamily=Verdana;fontSize=16;fontColor=default;" parent="1" source="IfO0auWpTc6W7PwIrmge-199" target="IfO0auWpTc6W7PwIrmge-201" edge="1">
          <mxGeometry relative="1" as="geometry" />
        </mxCell>
        <mxCell id="IfO0auWpTc6W7PwIrmge-199" value="payload" style="rounded=1;whiteSpace=wrap;html=1;fontFamily=Verdana;fontSize=16;" parent="1" vertex="1">
          <mxGeometry x="4784" y="5747" width="220" height="60" as="geometry" />
        </mxCell>
        <mxCell id="IfO0auWpTc6W7PwIrmge-200" value="val_pe_get_index_mpid" style="rounded=1;whiteSpace=wrap;html=1;fontFamily=Verdana;fontSize=16;" parent="1" vertex="1">
          <mxGeometry x="4980" y="5860" width="220" height="60" as="geometry" />
        </mxCell>
        <mxCell id="IfO0auWpTc6W7PwIrmge-201" value="val_pcie_bdf_table_ptr" style="rounded=1;whiteSpace=wrap;html=1;fontFamily=Verdana;fontSize=16;" parent="1" vertex="1">
          <mxGeometry x="4980" y="5960" width="220" height="60" as="geometry" />
        </mxCell>
        <mxCell id="IfO0auWpTc6W7PwIrmge-222" style="edgeStyle=orthogonalEdgeStyle;rounded=0;orthogonalLoop=1;jettySize=auto;html=1;entryX=0;entryY=0.5;entryDx=0;entryDy=0;fontFamily=Verdana;fontSize=16;fontColor=default;" parent="1" source="IfO0auWpTc6W7PwIrmge-210" target="IfO0auWpTc6W7PwIrmge-211" edge="1">
          <mxGeometry relative="1" as="geometry" />
        </mxCell>
        <mxCell id="IfO0auWpTc6W7PwIrmge-223" style="edgeStyle=orthogonalEdgeStyle;rounded=0;orthogonalLoop=1;jettySize=auto;html=1;entryX=0;entryY=0.5;entryDx=0;entryDy=0;fontFamily=Verdana;fontSize=16;fontColor=default;" parent="1" source="IfO0auWpTc6W7PwIrmge-210" target="IfO0auWpTc6W7PwIrmge-212" edge="1">
          <mxGeometry relative="1" as="geometry" />
        </mxCell>
        <mxCell id="IfO0auWpTc6W7PwIrmge-224" style="edgeStyle=orthogonalEdgeStyle;rounded=0;orthogonalLoop=1;jettySize=auto;html=1;entryX=0;entryY=0.5;entryDx=0;entryDy=0;fontFamily=Verdana;fontSize=16;fontColor=default;" parent="1" source="IfO0auWpTc6W7PwIrmge-210" target="IfO0auWpTc6W7PwIrmge-213" edge="1">
          <mxGeometry relative="1" as="geometry" />
        </mxCell>
        <mxCell id="IfO0auWpTc6W7PwIrmge-225" style="edgeStyle=orthogonalEdgeStyle;rounded=0;orthogonalLoop=1;jettySize=auto;html=1;entryX=0;entryY=0.5;entryDx=0;entryDy=0;fontFamily=Verdana;fontSize=16;fontColor=default;" parent="1" source="IfO0auWpTc6W7PwIrmge-210" target="IfO0auWpTc6W7PwIrmge-214" edge="1">
          <mxGeometry relative="1" as="geometry" />
        </mxCell>
        <mxCell id="dnxj_65WCBITvXJHt6Qu-69" style="edgeStyle=orthogonalEdgeStyle;rounded=0;orthogonalLoop=1;jettySize=auto;html=1;entryX=0;entryY=0.5;entryDx=0;entryDy=0;" parent="1" source="IfO0auWpTc6W7PwIrmge-210" target="dnxj_65WCBITvXJHt6Qu-68" edge="1">
          <mxGeometry relative="1" as="geometry" />
        </mxCell>
        <mxCell id="IfO0auWpTc6W7PwIrmge-210" value="val_bsa_pcie_execute_tests" style="rounded=1;whiteSpace=wrap;html=1;fontFamily=Verdana;fontSize=16;" parent="1" vertex="1">
          <mxGeometry x="3700" y="5320" width="306" height="60" as="geometry" />
        </mxCell>
        <mxCell id="IfO0auWpTc6W7PwIrmge-211" value="os_p061_entry" style="rounded=1;whiteSpace=wrap;html=1;fontFamily=Verdana;fontSize=16;" parent="1" vertex="1">
          <mxGeometry x="3906" y="5440" width="220" height="60" as="geometry" />
        </mxCell>
        <mxCell id="IfO0auWpTc6W7PwIrmge-212" value="os_p062_entry" style="rounded=1;whiteSpace=wrap;html=1;fontFamily=Verdana;fontSize=16;" parent="1" vertex="1">
          <mxGeometry x="3906" y="5530" width="220" height="60" as="geometry" />
        </mxCell>
        <mxCell id="IfO0auWpTc6W7PwIrmge-213" value="os_p063_entry" style="rounded=1;whiteSpace=wrap;html=1;fontFamily=Verdana;fontSize=16;" parent="1" vertex="1">
          <mxGeometry x="3906" y="5630" width="220" height="60" as="geometry" />
        </mxCell>
        <mxCell id="IfO0auWpTc6W7PwIrmge-214" value="..." style="rounded=1;whiteSpace=wrap;html=1;fontFamily=Verdana;fontSize=16;" parent="1" vertex="1">
          <mxGeometry x="3906" y="5840" width="220" height="60" as="geometry" />
        </mxCell>
        <mxCell id="IfO0auWpTc6W7PwIrmge-220" style="edgeStyle=orthogonalEdgeStyle;rounded=0;orthogonalLoop=1;jettySize=auto;html=1;fontFamily=Verdana;fontSize=16;fontColor=default;" parent="1" source="IfO0auWpTc6W7PwIrmge-215" target="IfO0auWpTc6W7PwIrmge-218" edge="1">
          <mxGeometry relative="1" as="geometry" />
        </mxCell>
        <mxCell id="IfO0auWpTc6W7PwIrmge-221" style="edgeStyle=orthogonalEdgeStyle;rounded=0;orthogonalLoop=1;jettySize=auto;html=1;fontFamily=Verdana;fontSize=16;fontColor=default;" parent="1" source="IfO0auWpTc6W7PwIrmge-215" target="IfO0auWpTc6W7PwIrmge-210" edge="1">
          <mxGeometry relative="1" as="geometry" />
        </mxCell>
        <mxCell id="IfO0auWpTc6W7PwIrmge-215" value="val_glue_execute_command" style="rounded=1;whiteSpace=wrap;html=1;fontFamily=Verdana;fontSize=16;" parent="1" vertex="1">
          <mxGeometry x="3394" y="5140" width="306" height="60" as="geometry" />
        </mxCell>
        <mxCell id="IfO0auWpTc6W7PwIrmge-219" style="edgeStyle=orthogonalEdgeStyle;rounded=0;orthogonalLoop=1;jettySize=auto;html=1;fontFamily=Verdana;fontSize=16;fontColor=default;" parent="1" source="IfO0auWpTc6W7PwIrmge-216" target="IfO0auWpTc6W7PwIrmge-215" edge="1">
          <mxGeometry relative="1" as="geometry" />
        </mxCell>
        <mxCell id="IfO0auWpTc6W7PwIrmge-216" value="sbsa_proc_write" style="rounded=1;whiteSpace=wrap;html=1;fontFamily=Verdana;fontSize=16;" parent="1" vertex="1">
          <mxGeometry x="3394" y="5030" width="306" height="60" as="geometry" />
        </mxCell>
        <mxCell id="IfO0auWpTc6W7PwIrmge-218" value="val_glue_execute_command" style="rounded=1;whiteSpace=wrap;html=1;fontFamily=Verdana;fontSize=16;" parent="1" vertex="1">
          <mxGeometry x="3174" y="5320" width="306" height="60" as="geometry" />
        </mxCell>
        <mxCell id="dnxj_65WCBITvXJHt6Qu-3" value="&lt;font style=&quot;font-size: 36px;&quot;&gt;SBSA test&lt;/font&gt;" style="text;html=1;align=left;verticalAlign=middle;whiteSpace=wrap;rounded=0;fontFamily=Verdana;fontSize=16;fontColor=default;" parent="1" vertex="1">
          <mxGeometry x="3100" y="2710" width="290" height="60" as="geometry" />
        </mxCell>
        <mxCell id="dnxj_65WCBITvXJHt6Qu-4" value="&lt;font style=&quot;font-size: 36px;&quot;&gt;BSA test&lt;/font&gt;" style="text;html=1;align=left;verticalAlign=middle;whiteSpace=wrap;rounded=0;fontFamily=Verdana;fontSize=16;fontColor=default;" parent="1" vertex="1">
          <mxGeometry x="3011" y="4980" width="290" height="60" as="geometry" />
        </mxCell>
        <mxCell id="dnxj_65WCBITvXJHt6Qu-36" style="edgeStyle=orthogonalEdgeStyle;rounded=0;orthogonalLoop=1;jettySize=auto;html=1;entryX=0;entryY=0.5;entryDx=0;entryDy=0;" parent="1" source="dnxj_65WCBITvXJHt6Qu-27" target="dnxj_65WCBITvXJHt6Qu-28" edge="1">
          <mxGeometry relative="1" as="geometry" />
        </mxCell>
        <mxCell id="dnxj_65WCBITvXJHt6Qu-37" style="edgeStyle=orthogonalEdgeStyle;rounded=0;orthogonalLoop=1;jettySize=auto;html=1;entryX=0;entryY=0.5;entryDx=0;entryDy=0;" parent="1" source="dnxj_65WCBITvXJHt6Qu-27" target="dnxj_65WCBITvXJHt6Qu-29" edge="1">
          <mxGeometry relative="1" as="geometry" />
        </mxCell>
        <mxCell id="dnxj_65WCBITvXJHt6Qu-38" style="edgeStyle=orthogonalEdgeStyle;rounded=0;orthogonalLoop=1;jettySize=auto;html=1;entryX=0;entryY=0.5;entryDx=0;entryDy=0;" parent="1" source="dnxj_65WCBITvXJHt6Qu-27" target="dnxj_65WCBITvXJHt6Qu-30" edge="1">
          <mxGeometry relative="1" as="geometry" />
        </mxCell>
        <mxCell id="dnxj_65WCBITvXJHt6Qu-39" style="edgeStyle=orthogonalEdgeStyle;rounded=0;orthogonalLoop=1;jettySize=auto;html=1;entryX=0;entryY=0.5;entryDx=0;entryDy=0;" parent="1" source="dnxj_65WCBITvXJHt6Qu-27" target="dnxj_65WCBITvXJHt6Qu-31" edge="1">
          <mxGeometry relative="1" as="geometry" />
        </mxCell>
        <mxCell id="dnxj_65WCBITvXJHt6Qu-27" value="p009_entry" style="rounded=1;whiteSpace=wrap;html=1;fontFamily=Verdana;fontSize=16;fillColor=#dae8fc;strokeColor=#6c8ebf;" parent="1" vertex="1">
          <mxGeometry x="4442" y="2800" width="220" height="60" as="geometry" />
        </mxCell>
        <mxCell id="dnxj_65WCBITvXJHt6Qu-28" value="val_initialize_test" style="rounded=1;whiteSpace=wrap;html=1;fontFamily=Verdana;fontSize=16;" parent="1" vertex="1">
          <mxGeometry x="4642" y="2900" width="220" height="60" as="geometry" />
        </mxCell>
        <mxCell id="dnxj_65WCBITvXJHt6Qu-40" style="edgeStyle=orthogonalEdgeStyle;rounded=0;orthogonalLoop=1;jettySize=auto;html=1;" parent="1" source="dnxj_65WCBITvXJHt6Qu-29" target="dnxj_65WCBITvXJHt6Qu-32" edge="1">
          <mxGeometry relative="1" as="geometry" />
        </mxCell>
        <mxCell id="dnxj_65WCBITvXJHt6Qu-29" value="val_run_test_payload" style="rounded=1;whiteSpace=wrap;html=1;fontFamily=Verdana;fontSize=16;" parent="1" vertex="1">
          <mxGeometry x="4642" y="3000" width="220" height="60" as="geometry" />
        </mxCell>
        <mxCell id="dnxj_65WCBITvXJHt6Qu-30" value="val_check_for_error" style="rounded=1;whiteSpace=wrap;html=1;fontFamily=Verdana;fontSize=16;" parent="1" vertex="1">
          <mxGeometry x="4642" y="3100" width="220" height="60" as="geometry" />
        </mxCell>
        <mxCell id="dnxj_65WCBITvXJHt6Qu-31" value="val_report_status" style="rounded=1;whiteSpace=wrap;html=1;fontFamily=Verdana;fontSize=16;" parent="1" vertex="1">
          <mxGeometry x="4642" y="3200" width="220" height="60" as="geometry" />
        </mxCell>
        <mxCell id="dnxj_65WCBITvXJHt6Qu-41" style="edgeStyle=orthogonalEdgeStyle;rounded=0;orthogonalLoop=1;jettySize=auto;html=1;entryX=0;entryY=0.5;entryDx=0;entryDy=0;" parent="1" source="dnxj_65WCBITvXJHt6Qu-32" target="dnxj_65WCBITvXJHt6Qu-34" edge="1">
          <mxGeometry relative="1" as="geometry" />
        </mxCell>
        <mxCell id="dnxj_65WCBITvXJHt6Qu-42" style="edgeStyle=orthogonalEdgeStyle;rounded=0;orthogonalLoop=1;jettySize=auto;html=1;entryX=0;entryY=0.5;entryDx=0;entryDy=0;" parent="1" source="dnxj_65WCBITvXJHt6Qu-32" target="dnxj_65WCBITvXJHt6Qu-35" edge="1">
          <mxGeometry relative="1" as="geometry" />
        </mxCell>
        <mxCell id="dnxj_65WCBITvXJHt6Qu-32" value="payload" style="rounded=1;whiteSpace=wrap;html=1;fontFamily=Verdana;fontSize=16;" parent="1" vertex="1">
          <mxGeometry x="4972" y="3000" width="220" height="60" as="geometry" />
        </mxCell>
        <mxCell id="dnxj_65WCBITvXJHt6Qu-34" value="val_peripheral_get_info" style="rounded=1;whiteSpace=wrap;html=1;fontFamily=Verdana;fontSize=16;" parent="1" vertex="1">
          <mxGeometry x="5156" y="3130" width="220" height="60" as="geometry" />
        </mxCell>
        <mxCell id="dnxj_65WCBITvXJHt6Qu-35" value="val_pe_get_index_mpid" style="rounded=1;whiteSpace=wrap;html=1;fontFamily=Verdana;fontSize=16;" parent="1" vertex="1">
          <mxGeometry x="5156" y="3240" width="220" height="60" as="geometry" />
        </mxCell>
        <mxCell id="dnxj_65WCBITvXJHt6Qu-49" style="edgeStyle=orthogonalEdgeStyle;rounded=0;orthogonalLoop=1;jettySize=auto;html=1;entryX=0;entryY=0.5;entryDx=0;entryDy=0;" parent="1" source="dnxj_65WCBITvXJHt6Qu-43" target="dnxj_65WCBITvXJHt6Qu-44" edge="1">
          <mxGeometry relative="1" as="geometry" />
        </mxCell>
        <mxCell id="dnxj_65WCBITvXJHt6Qu-50" style="edgeStyle=orthogonalEdgeStyle;rounded=0;orthogonalLoop=1;jettySize=auto;html=1;entryX=0;entryY=0.5;entryDx=0;entryDy=0;" parent="1" source="dnxj_65WCBITvXJHt6Qu-43" target="dnxj_65WCBITvXJHt6Qu-45" edge="1">
          <mxGeometry relative="1" as="geometry" />
        </mxCell>
        <mxCell id="dnxj_65WCBITvXJHt6Qu-51" style="edgeStyle=orthogonalEdgeStyle;rounded=0;orthogonalLoop=1;jettySize=auto;html=1;entryX=0;entryY=0.5;entryDx=0;entryDy=0;" parent="1" source="dnxj_65WCBITvXJHt6Qu-43" target="dnxj_65WCBITvXJHt6Qu-46" edge="1">
          <mxGeometry relative="1" as="geometry" />
        </mxCell>
        <mxCell id="dnxj_65WCBITvXJHt6Qu-52" style="edgeStyle=orthogonalEdgeStyle;rounded=0;orthogonalLoop=1;jettySize=auto;html=1;entryX=0;entryY=0.5;entryDx=0;entryDy=0;" parent="1" source="dnxj_65WCBITvXJHt6Qu-43" target="dnxj_65WCBITvXJHt6Qu-47" edge="1">
          <mxGeometry relative="1" as="geometry" />
        </mxCell>
        <mxCell id="dnxj_65WCBITvXJHt6Qu-43" value="i016_entry" style="rounded=1;whiteSpace=wrap;html=1;fontFamily=Verdana;fontSize=16;fillColor=#dae8fc;strokeColor=#6c8ebf;" parent="1" vertex="1">
          <mxGeometry x="4442" y="3730" width="220" height="60" as="geometry" />
        </mxCell>
        <mxCell id="dnxj_65WCBITvXJHt6Qu-44" value="val_initialize_test" style="rounded=1;whiteSpace=wrap;html=1;fontFamily=Verdana;fontSize=16;" parent="1" vertex="1">
          <mxGeometry x="4630" y="3890" width="220" height="60" as="geometry" />
        </mxCell>
        <mxCell id="dnxj_65WCBITvXJHt6Qu-53" style="edgeStyle=orthogonalEdgeStyle;rounded=0;orthogonalLoop=1;jettySize=auto;html=1;" parent="1" source="dnxj_65WCBITvXJHt6Qu-45" target="dnxj_65WCBITvXJHt6Qu-48" edge="1">
          <mxGeometry relative="1" as="geometry" />
        </mxCell>
        <mxCell id="dnxj_65WCBITvXJHt6Qu-45" value="val_run_test_payload" style="rounded=1;whiteSpace=wrap;html=1;fontFamily=Verdana;fontSize=16;" parent="1" vertex="1">
          <mxGeometry x="4630" y="3990" width="220" height="60" as="geometry" />
        </mxCell>
        <mxCell id="dnxj_65WCBITvXJHt6Qu-46" value="val_check_for_error" style="rounded=1;whiteSpace=wrap;html=1;fontFamily=Verdana;fontSize=16;" parent="1" vertex="1">
          <mxGeometry x="4630" y="4090" width="220" height="60" as="geometry" />
        </mxCell>
        <mxCell id="dnxj_65WCBITvXJHt6Qu-47" value="val_report_status" style="rounded=1;whiteSpace=wrap;html=1;fontFamily=Verdana;fontSize=16;" parent="1" vertex="1">
          <mxGeometry x="4630" y="4190" width="220" height="60" as="geometry" />
        </mxCell>
        <mxCell id="dnxj_65WCBITvXJHt6Qu-48" value="payload" style="rounded=1;whiteSpace=wrap;html=1;fontFamily=Verdana;fontSize=16;" parent="1" vertex="1">
          <mxGeometry x="4962" y="3990" width="220" height="60" as="geometry" />
        </mxCell>
        <mxCell id="dnxj_65WCBITvXJHt6Qu-54" value="&amp;nbsp; #if defined(TARGET_LINUX) || defined(TARGET_EMULATION)" style="rounded=1;whiteSpace=wrap;html=1;fontFamily=Verdana;fontSize=16;fillColor=#f8cecc;strokeColor=#b85450;" parent="1" vertex="1">
          <mxGeometry x="3560" y="1720" width="540" height="60" as="geometry" />
        </mxCell>
        <mxCell id="dnxj_65WCBITvXJHt6Qu-55" value="p009_entry" style="rounded=1;whiteSpace=wrap;html=1;fontFamily=Verdana;fontSize=16;" parent="1" vertex="1">
          <mxGeometry x="4200" y="2000" width="286" height="60" as="geometry" />
        </mxCell>
        <mxCell id="dnxj_65WCBITvXJHt6Qu-56" value="os_p061_entry" style="rounded=1;whiteSpace=wrap;html=1;fontFamily=Verdana;fontSize=16;" parent="1" vertex="1">
          <mxGeometry x="3800" y="2000" width="286" height="60" as="geometry" />
        </mxCell>
        <mxCell id="dnxj_65WCBITvXJHt6Qu-58" value="os_p062_entry" style="rounded=1;whiteSpace=wrap;html=1;fontFamily=Verdana;fontSize=16;" parent="1" vertex="1">
          <mxGeometry x="3800" y="2090" width="286" height="60" as="geometry" />
        </mxCell>
        <mxCell id="dnxj_65WCBITvXJHt6Qu-59" value="os_p063_entry" style="rounded=1;whiteSpace=wrap;html=1;fontFamily=Verdana;fontSize=16;" parent="1" vertex="1">
          <mxGeometry x="3800" y="2170" width="286" height="60" as="geometry" />
        </mxCell>
        <mxCell id="dnxj_65WCBITvXJHt6Qu-60" value="os_p064_entry" style="rounded=1;whiteSpace=wrap;html=1;fontFamily=Verdana;fontSize=16;" parent="1" vertex="1">
          <mxGeometry x="3800" y="2250" width="286" height="60" as="geometry" />
        </mxCell>
        <mxCell id="dnxj_65WCBITvXJHt6Qu-61" value="os_d004_entry" style="rounded=1;whiteSpace=wrap;html=1;fontFamily=Verdana;fontSize=16;" parent="1" vertex="1">
          <mxGeometry x="3800" y="2360" width="286" height="60" as="geometry" />
        </mxCell>
        <mxCell id="dnxj_65WCBITvXJHt6Qu-62" value="os_m004_entry" style="rounded=1;whiteSpace=wrap;html=1;fontFamily=Verdana;fontSize=16;" parent="1" vertex="1">
          <mxGeometry x="3800" y="2460" width="286" height="60" as="geometry" />
        </mxCell>
        <mxCell id="dnxj_65WCBITvXJHt6Qu-63" value="p005_entry" style="rounded=1;whiteSpace=wrap;html=1;fontFamily=Verdana;fontSize=16;" parent="1" vertex="1">
          <mxGeometry x="4200" y="2100" width="286" height="60" as="geometry" />
        </mxCell>
        <mxCell id="dnxj_65WCBITvXJHt6Qu-64" value="i016_entry" style="rounded=1;whiteSpace=wrap;html=1;fontFamily=Verdana;fontSize=16;" parent="1" vertex="1">
          <mxGeometry x="4200" y="2190" width="286" height="60" as="geometry" />
        </mxCell>
        <mxCell id="dnxj_65WCBITvXJHt6Qu-65" value="&lt;font style=&quot;font-size: 36px;&quot;&gt;BSA test&lt;/font&gt;" style="text;html=1;align=left;verticalAlign=middle;whiteSpace=wrap;rounded=0;fontFamily=Verdana;fontSize=16;fontColor=default;" parent="1" vertex="1">
          <mxGeometry x="3807" y="1880" width="290" height="60" as="geometry" />
        </mxCell>
        <mxCell id="dnxj_65WCBITvXJHt6Qu-67" value="&lt;font style=&quot;font-size: 36px;&quot;&gt;SBSA test&lt;/font&gt;" style="text;html=1;align=left;verticalAlign=middle;whiteSpace=wrap;rounded=0;fontFamily=Verdana;fontSize=16;fontColor=default;" parent="1" vertex="1">
          <mxGeometry x="4200" y="1880" width="290" height="60" as="geometry" />
        </mxCell>
        <mxCell id="dnxj_65WCBITvXJHt6Qu-68" value="os_p064_entry" style="rounded=1;whiteSpace=wrap;html=1;fontFamily=Verdana;fontSize=16;" parent="1" vertex="1">
          <mxGeometry x="3906" y="5730" width="220" height="60" as="geometry" />
        </mxCell>
        <mxCell id="dnxj_65WCBITvXJHt6Qu-88" style="edgeStyle=orthogonalEdgeStyle;rounded=0;orthogonalLoop=1;jettySize=auto;html=1;entryX=0;entryY=0.5;entryDx=0;entryDy=0;" parent="1" source="dnxj_65WCBITvXJHt6Qu-70" target="dnxj_65WCBITvXJHt6Qu-71" edge="1">
          <mxGeometry relative="1" as="geometry" />
        </mxCell>
        <mxCell id="dnxj_65WCBITvXJHt6Qu-89" style="edgeStyle=orthogonalEdgeStyle;rounded=0;orthogonalLoop=1;jettySize=auto;html=1;entryX=0;entryY=0.5;entryDx=0;entryDy=0;" parent="1" source="dnxj_65WCBITvXJHt6Qu-70" target="dnxj_65WCBITvXJHt6Qu-72" edge="1">
          <mxGeometry relative="1" as="geometry" />
        </mxCell>
        <mxCell id="dnxj_65WCBITvXJHt6Qu-90" style="edgeStyle=orthogonalEdgeStyle;rounded=0;orthogonalLoop=1;jettySize=auto;html=1;entryX=0;entryY=0.5;entryDx=0;entryDy=0;" parent="1" source="dnxj_65WCBITvXJHt6Qu-70" target="dnxj_65WCBITvXJHt6Qu-73" edge="1">
          <mxGeometry relative="1" as="geometry" />
        </mxCell>
        <mxCell id="dnxj_65WCBITvXJHt6Qu-91" style="edgeStyle=orthogonalEdgeStyle;rounded=0;orthogonalLoop=1;jettySize=auto;html=1;entryX=0;entryY=0.5;entryDx=0;entryDy=0;" parent="1" source="dnxj_65WCBITvXJHt6Qu-70" target="dnxj_65WCBITvXJHt6Qu-74" edge="1">
          <mxGeometry relative="1" as="geometry" />
        </mxCell>
        <mxCell id="dnxj_65WCBITvXJHt6Qu-70" value="os_m004_entry" style="rounded=1;whiteSpace=wrap;html=1;fontFamily=Verdana;fontSize=16;fillColor=#dae8fc;strokeColor=#6c8ebf;" parent="1" vertex="1">
          <mxGeometry x="4270" y="6350" width="220" height="60" as="geometry" />
        </mxCell>
        <mxCell id="dnxj_65WCBITvXJHt6Qu-71" value="val_initialize_test" style="rounded=1;whiteSpace=wrap;html=1;fontFamily=Verdana;fontSize=16;" parent="1" vertex="1">
          <mxGeometry x="4450" y="6490" width="220" height="60" as="geometry" />
        </mxCell>
        <mxCell id="dnxj_65WCBITvXJHt6Qu-92" style="edgeStyle=orthogonalEdgeStyle;rounded=0;orthogonalLoop=1;jettySize=auto;html=1;" parent="1" source="dnxj_65WCBITvXJHt6Qu-72" target="dnxj_65WCBITvXJHt6Qu-75" edge="1">
          <mxGeometry relative="1" as="geometry" />
        </mxCell>
        <mxCell id="dnxj_65WCBITvXJHt6Qu-72" value="val_run_test_payload" style="rounded=1;whiteSpace=wrap;html=1;fontFamily=Verdana;fontSize=16;" parent="1" vertex="1">
          <mxGeometry x="4450" y="6590" width="220" height="60" as="geometry" />
        </mxCell>
        <mxCell id="dnxj_65WCBITvXJHt6Qu-73" value="val_check_for_error" style="rounded=1;whiteSpace=wrap;html=1;fontFamily=Verdana;fontSize=16;" parent="1" vertex="1">
          <mxGeometry x="4450" y="6690" width="220" height="60" as="geometry" />
        </mxCell>
        <mxCell id="dnxj_65WCBITvXJHt6Qu-74" value="val_report_status" style="rounded=1;whiteSpace=wrap;html=1;fontFamily=Verdana;fontSize=16;" parent="1" vertex="1">
          <mxGeometry x="4450" y="6780" width="220" height="60" as="geometry" />
        </mxCell>
        <mxCell id="dnxj_65WCBITvXJHt6Qu-78" style="edgeStyle=orthogonalEdgeStyle;rounded=0;orthogonalLoop=1;jettySize=auto;html=1;entryX=0;entryY=0.5;entryDx=0;entryDy=0;" parent="1" source="dnxj_65WCBITvXJHt6Qu-75" target="dnxj_65WCBITvXJHt6Qu-77" edge="1">
          <mxGeometry relative="1" as="geometry" />
        </mxCell>
        <mxCell id="dnxj_65WCBITvXJHt6Qu-79" style="edgeStyle=orthogonalEdgeStyle;rounded=0;orthogonalLoop=1;jettySize=auto;html=1;entryX=0;entryY=0.5;entryDx=0;entryDy=0;" parent="1" source="dnxj_65WCBITvXJHt6Qu-75" target="dnxj_65WCBITvXJHt6Qu-76" edge="1">
          <mxGeometry relative="1" as="geometry" />
        </mxCell>
        <mxCell id="dnxj_65WCBITvXJHt6Qu-84" style="edgeStyle=orthogonalEdgeStyle;rounded=0;orthogonalLoop=1;jettySize=auto;html=1;" parent="1" source="dnxj_65WCBITvXJHt6Qu-75" target="dnxj_65WCBITvXJHt6Qu-81" edge="1">
          <mxGeometry relative="1" as="geometry">
            <Array as="points">
              <mxPoint x="4894" y="6990" />
              <mxPoint x="4815" y="6990" />
            </Array>
          </mxGeometry>
        </mxCell>
        <mxCell id="dnxj_65WCBITvXJHt6Qu-85" style="edgeStyle=orthogonalEdgeStyle;rounded=0;orthogonalLoop=1;jettySize=auto;html=1;" parent="1" source="dnxj_65WCBITvXJHt6Qu-75" target="dnxj_65WCBITvXJHt6Qu-83" edge="1">
          <mxGeometry relative="1" as="geometry">
            <Array as="points">
              <mxPoint x="4894" y="6990" />
              <mxPoint x="5376" y="6990" />
            </Array>
          </mxGeometry>
        </mxCell>
        <mxCell id="dnxj_65WCBITvXJHt6Qu-93" style="edgeStyle=orthogonalEdgeStyle;rounded=0;orthogonalLoop=1;jettySize=auto;html=1;" parent="1" source="dnxj_65WCBITvXJHt6Qu-75" target="dnxj_65WCBITvXJHt6Qu-86" edge="1">
          <mxGeometry relative="1" as="geometry">
            <Array as="points">
              <mxPoint x="4894" y="6990" />
              <mxPoint x="5765" y="6990" />
            </Array>
          </mxGeometry>
        </mxCell>
        <mxCell id="dnxj_65WCBITvXJHt6Qu-75" value="payload" style="rounded=1;whiteSpace=wrap;html=1;fontFamily=Verdana;fontSize=16;" parent="1" vertex="1">
          <mxGeometry x="4784" y="6590" width="220" height="60" as="geometry" />
        </mxCell>
        <mxCell id="dnxj_65WCBITvXJHt6Qu-76" value="val_peripheral_get_info" style="rounded=1;whiteSpace=wrap;html=1;fontFamily=Verdana;fontSize=16;" parent="1" vertex="1">
          <mxGeometry x="4972" y="6850" width="220" height="60" as="geometry" />
        </mxCell>
        <mxCell id="dnxj_65WCBITvXJHt6Qu-77" value="val_pe_get_index_mpid" style="rounded=1;whiteSpace=wrap;html=1;fontFamily=Verdana;fontSize=16;" parent="1" vertex="1">
          <mxGeometry x="4972" y="6730" width="220" height="60" as="geometry" />
        </mxCell>
        <mxCell id="dnxj_65WCBITvXJHt6Qu-80" value="NUM_ALL" style="rounded=1;whiteSpace=wrap;html=1;fontFamily=Verdana;fontSize=16;fillColor=#ffe6cc;strokeColor=#d79b00;" parent="1" vertex="1">
          <mxGeometry x="5192" y="6850" width="158" height="60" as="geometry" />
        </mxCell>
        <mxCell id="dnxj_65WCBITvXJHt6Qu-81" value="val_peripheral_get_info" style="rounded=1;whiteSpace=wrap;html=1;fontFamily=Verdana;fontSize=16;" parent="1" vertex="1">
          <mxGeometry x="4660" y="7110" width="310" height="60" as="geometry" />
        </mxCell>
        <mxCell id="dnxj_65WCBITvXJHt6Qu-82" value="ANY_BDF" style="rounded=1;whiteSpace=wrap;html=1;fontFamily=Verdana;fontSize=16;fillColor=#ffe6cc;strokeColor=#d79b00;" parent="1" vertex="1">
          <mxGeometry x="4970" y="7110" width="158" height="60" as="geometry" />
        </mxCell>
        <mxCell id="dnxj_65WCBITvXJHt6Qu-83" value="val_pcie_get_device_type" style="rounded=1;whiteSpace=wrap;html=1;fontFamily=Verdana;fontSize=16;" parent="1" vertex="1">
          <mxGeometry x="5221" y="7110" width="310" height="60" as="geometry" />
        </mxCell>
        <mxCell id="dnxj_65WCBITvXJHt6Qu-95" style="edgeStyle=orthogonalEdgeStyle;rounded=0;orthogonalLoop=1;jettySize=auto;html=1;" parent="1" source="dnxj_65WCBITvXJHt6Qu-86" target="dnxj_65WCBITvXJHt6Qu-94" edge="1">
          <mxGeometry relative="1" as="geometry" />
        </mxCell>
        <mxCell id="dnxj_65WCBITvXJHt6Qu-86" value="val_pcie_device_driver_present" style="rounded=1;whiteSpace=wrap;html=1;fontFamily=Verdana;fontSize=16;" parent="1" vertex="1">
          <mxGeometry x="5610" y="7110" width="310" height="60" as="geometry" />
        </mxCell>
        <mxCell id="dnxj_65WCBITvXJHt6Qu-94" value="pal_pcie_device_driver_present" style="rounded=1;whiteSpace=wrap;html=1;fontFamily=Verdana;fontSize=16;fillColor=#cdeb8b;strokeColor=#36393d;" parent="1" vertex="1">
          <mxGeometry x="5610" y="7230" width="310" height="60" as="geometry" />
        </mxCell>
        <mxCell id="dnxj_65WCBITvXJHt6Qu-102" style="edgeStyle=orthogonalEdgeStyle;rounded=0;orthogonalLoop=1;jettySize=auto;html=1;entryX=0;entryY=0.5;entryDx=0;entryDy=0;" parent="1" source="dnxj_65WCBITvXJHt6Qu-97" target="dnxj_65WCBITvXJHt6Qu-98" edge="1">
          <mxGeometry relative="1" as="geometry" />
        </mxCell>
        <mxCell id="dnxj_65WCBITvXJHt6Qu-103" style="edgeStyle=orthogonalEdgeStyle;rounded=0;orthogonalLoop=1;jettySize=auto;html=1;entryX=0;entryY=0.5;entryDx=0;entryDy=0;" parent="1" source="dnxj_65WCBITvXJHt6Qu-97" target="dnxj_65WCBITvXJHt6Qu-99" edge="1">
          <mxGeometry relative="1" as="geometry" />
        </mxCell>
        <mxCell id="dnxj_65WCBITvXJHt6Qu-104" style="edgeStyle=orthogonalEdgeStyle;rounded=0;orthogonalLoop=1;jettySize=auto;html=1;entryX=0;entryY=0.5;entryDx=0;entryDy=0;" parent="1" source="dnxj_65WCBITvXJHt6Qu-97" target="dnxj_65WCBITvXJHt6Qu-100" edge="1">
          <mxGeometry relative="1" as="geometry" />
        </mxCell>
        <mxCell id="dnxj_65WCBITvXJHt6Qu-105" style="edgeStyle=orthogonalEdgeStyle;rounded=0;orthogonalLoop=1;jettySize=auto;html=1;entryX=0;entryY=0.5;entryDx=0;entryDy=0;" parent="1" source="dnxj_65WCBITvXJHt6Qu-97" target="dnxj_65WCBITvXJHt6Qu-101" edge="1">
          <mxGeometry relative="1" as="geometry" />
        </mxCell>
        <mxCell id="dnxj_65WCBITvXJHt6Qu-97" value="os_d004_entry" style="rounded=1;whiteSpace=wrap;html=1;fontFamily=Verdana;fontSize=16;fillColor=#dae8fc;strokeColor=#6c8ebf;" parent="1" vertex="1">
          <mxGeometry x="4284" y="7350" width="220" height="60" as="geometry" />
        </mxCell>
        <mxCell id="dnxj_65WCBITvXJHt6Qu-98" value="val_initialize_test" style="rounded=1;whiteSpace=wrap;html=1;fontFamily=Verdana;fontSize=16;" parent="1" vertex="1">
          <mxGeometry x="4474" y="7470" width="220" height="60" as="geometry" />
        </mxCell>
        <mxCell id="dnxj_65WCBITvXJHt6Qu-107" style="edgeStyle=orthogonalEdgeStyle;rounded=0;orthogonalLoop=1;jettySize=auto;html=1;" parent="1" source="dnxj_65WCBITvXJHt6Qu-99" target="dnxj_65WCBITvXJHt6Qu-106" edge="1">
          <mxGeometry relative="1" as="geometry" />
        </mxCell>
        <mxCell id="dnxj_65WCBITvXJHt6Qu-99" value="val_run_test_payload" style="rounded=1;whiteSpace=wrap;html=1;fontFamily=Verdana;fontSize=16;" parent="1" vertex="1">
          <mxGeometry x="4474" y="7570" width="220" height="60" as="geometry" />
        </mxCell>
        <mxCell id="dnxj_65WCBITvXJHt6Qu-100" value="val_check_for_error" style="rounded=1;whiteSpace=wrap;html=1;fontFamily=Verdana;fontSize=16;" parent="1" vertex="1">
          <mxGeometry x="4474" y="7670" width="220" height="60" as="geometry" />
        </mxCell>
        <mxCell id="dnxj_65WCBITvXJHt6Qu-101" value="val_report_status" style="rounded=1;whiteSpace=wrap;html=1;fontFamily=Verdana;fontSize=16;" parent="1" vertex="1">
          <mxGeometry x="4474" y="7760" width="220" height="60" as="geometry" />
        </mxCell>
        <mxCell id="dnxj_65WCBITvXJHt6Qu-114" style="edgeStyle=orthogonalEdgeStyle;rounded=0;orthogonalLoop=1;jettySize=auto;html=1;entryX=0;entryY=0.5;entryDx=0;entryDy=0;" parent="1" source="dnxj_65WCBITvXJHt6Qu-106" target="dnxj_65WCBITvXJHt6Qu-108" edge="1">
          <mxGeometry relative="1" as="geometry" />
        </mxCell>
        <mxCell id="dnxj_65WCBITvXJHt6Qu-115" style="edgeStyle=orthogonalEdgeStyle;rounded=0;orthogonalLoop=1;jettySize=auto;html=1;" parent="1" source="dnxj_65WCBITvXJHt6Qu-106" target="dnxj_65WCBITvXJHt6Qu-109" edge="1">
          <mxGeometry relative="1" as="geometry">
            <Array as="points">
              <mxPoint x="4894" y="7870" />
              <mxPoint x="4772" y="7870" />
            </Array>
          </mxGeometry>
        </mxCell>
        <mxCell id="dnxj_65WCBITvXJHt6Qu-116" style="edgeStyle=orthogonalEdgeStyle;rounded=0;orthogonalLoop=1;jettySize=auto;html=1;" parent="1" source="dnxj_65WCBITvXJHt6Qu-106" target="dnxj_65WCBITvXJHt6Qu-110" edge="1">
          <mxGeometry relative="1" as="geometry">
            <Array as="points">
              <mxPoint x="4894" y="7870" />
              <mxPoint x="5280" y="7870" />
            </Array>
          </mxGeometry>
        </mxCell>
        <mxCell id="dnxj_65WCBITvXJHt6Qu-117" style="edgeStyle=orthogonalEdgeStyle;rounded=0;orthogonalLoop=1;jettySize=auto;html=1;entryX=0.5;entryY=0;entryDx=0;entryDy=0;" parent="1" source="dnxj_65WCBITvXJHt6Qu-106" target="dnxj_65WCBITvXJHt6Qu-111" edge="1">
          <mxGeometry relative="1" as="geometry">
            <Array as="points">
              <mxPoint x="4894" y="7870" />
              <mxPoint x="5815" y="7870" />
            </Array>
          </mxGeometry>
        </mxCell>
        <mxCell id="dnxj_65WCBITvXJHt6Qu-106" value="payload" style="rounded=1;whiteSpace=wrap;html=1;fontFamily=Verdana;fontSize=16;" parent="1" vertex="1">
          <mxGeometry x="4784" y="7570" width="220" height="60" as="geometry" />
        </mxCell>
        <mxCell id="dnxj_65WCBITvXJHt6Qu-108" value="val_dma_get_info" style="rounded=1;whiteSpace=wrap;html=1;fontFamily=Verdana;fontSize=16;" parent="1" vertex="1">
          <mxGeometry x="4962" y="7730" width="220" height="60" as="geometry" />
        </mxCell>
        <mxCell id="dnxj_65WCBITvXJHt6Qu-109" value="val_dma_get_info" style="rounded=1;whiteSpace=wrap;html=1;fontFamily=Verdana;fontSize=16;" parent="1" vertex="1">
          <mxGeometry x="4662" y="7960" width="220" height="60" as="geometry" />
        </mxCell>
        <mxCell id="dnxj_65WCBITvXJHt6Qu-121" style="edgeStyle=orthogonalEdgeStyle;rounded=0;orthogonalLoop=1;jettySize=auto;html=1;" parent="1" source="dnxj_65WCBITvXJHt6Qu-110" target="dnxj_65WCBITvXJHt6Qu-118" edge="1">
          <mxGeometry relative="1" as="geometry">
            <Array as="points">
              <mxPoint x="5280" y="8100" />
              <mxPoint x="4992" y="8100" />
            </Array>
          </mxGeometry>
        </mxCell>
        <mxCell id="dnxj_65WCBITvXJHt6Qu-122" style="edgeStyle=orthogonalEdgeStyle;rounded=0;orthogonalLoop=1;jettySize=auto;html=1;entryX=0.5;entryY=0;entryDx=0;entryDy=0;" parent="1" source="dnxj_65WCBITvXJHt6Qu-110" target="dnxj_65WCBITvXJHt6Qu-120" edge="1">
          <mxGeometry relative="1" as="geometry" />
        </mxCell>
        <mxCell id="dnxj_65WCBITvXJHt6Qu-110" value="val_dma_mem_alloc" style="rounded=1;whiteSpace=wrap;html=1;fontFamily=Verdana;fontSize=16;" parent="1" vertex="1">
          <mxGeometry x="5170" y="7960" width="220" height="60" as="geometry" />
        </mxCell>
        <mxCell id="dnxj_65WCBITvXJHt6Qu-125" style="edgeStyle=orthogonalEdgeStyle;rounded=0;orthogonalLoop=1;jettySize=auto;html=1;" parent="1" source="dnxj_65WCBITvXJHt6Qu-111" target="dnxj_65WCBITvXJHt6Qu-123" edge="1">
          <mxGeometry relative="1" as="geometry" />
        </mxCell>
        <mxCell id="dnxj_65WCBITvXJHt6Qu-111" value="val_dma_mem_get_attrs" style="rounded=1;whiteSpace=wrap;html=1;fontFamily=Verdana;fontSize=16;" parent="1" vertex="1">
          <mxGeometry x="5690" y="7960" width="250" height="60" as="geometry" />
        </mxCell>
        <mxCell id="dnxj_65WCBITvXJHt6Qu-112" value="DMA_NUM_CTRL" style="rounded=1;whiteSpace=wrap;html=1;fontFamily=Verdana;fontSize=16;fillColor=#ffe6cc;strokeColor=#d79b00;" parent="1" vertex="1">
          <mxGeometry x="5182" y="7730" width="158" height="60" as="geometry" />
        </mxCell>
        <mxCell id="dnxj_65WCBITvXJHt6Qu-113" value="DMA_HOST_COHERENT" style="rounded=1;whiteSpace=wrap;html=1;fontFamily=Verdana;fontSize=16;fillColor=#ffe6cc;strokeColor=#d79b00;" parent="1" vertex="1">
          <mxGeometry x="4882" y="7960" width="228" height="60" as="geometry" />
        </mxCell>
        <mxCell id="dnxj_65WCBITvXJHt6Qu-118" value="val_dma_get_info" style="rounded=1;whiteSpace=wrap;html=1;fontFamily=Verdana;fontSize=16;" parent="1" vertex="1">
          <mxGeometry x="4882" y="8180" width="220" height="60" as="geometry" />
        </mxCell>
        <mxCell id="dnxj_65WCBITvXJHt6Qu-119" value="DMA_PORT_INFO" style="rounded=1;whiteSpace=wrap;html=1;fontFamily=Verdana;fontSize=16;fillColor=#ffe6cc;strokeColor=#d79b00;" parent="1" vertex="1">
          <mxGeometry x="5102" y="8180" width="198" height="60" as="geometry" />
        </mxCell>
        <mxCell id="dnxj_65WCBITvXJHt6Qu-120" value="&lt;div&gt;pal_dma_mem_alloc&lt;br&gt;&lt;/div&gt;" style="rounded=1;whiteSpace=wrap;html=1;fontFamily=Verdana;fontSize=16;fillColor=#cdeb8b;strokeColor=#36393d;" parent="1" vertex="1">
          <mxGeometry x="5370" y="8180" width="220" height="60" as="geometry" />
        </mxCell>
        <mxCell id="dnxj_65WCBITvXJHt6Qu-123" value="pal_dma_mem_get_attrs" style="rounded=1;whiteSpace=wrap;html=1;fontFamily=Verdana;fontSize=16;fillColor=#cdeb8b;strokeColor=#36393d;" parent="1" vertex="1">
          <mxGeometry x="5690" y="8180" width="250" height="60" as="geometry" />
        </mxCell>
        <mxCell id="lgZZCkZigxXX2BxmHdMG-1" value="" style="shape=note;whiteSpace=wrap;html=1;backgroundOutline=1;fontColor=#000000;darkOpacity=0.05;fillColor=#FFF9B2;strokeColor=none;fillStyle=solid;direction=west;gradientDirection=north;gradientColor=#FFF2A1;shadow=1;size=20;pointerEvents=1;" parent="1" vertex="1">
          <mxGeometry x="1160" y="620" width="140" height="160" as="geometry" />
        </mxCell>
        <mxCell id="5vwQa9sRSATyqPbi8usr-1" value="Host rootfs" style="rounded=1;whiteSpace=wrap;html=1;fontFamily=Verdana;fontSize=16;arcSize=3;labelPosition=center;verticalLabelPosition=middle;align=center;verticalAlign=top;fillColor=#dae8fc;strokeColor=#6c8ebf;" vertex="1" parent="1">
          <mxGeometry x="390" y="8790" width="490" height="410" as="geometry" />
        </mxCell>
        <mxCell id="5vwQa9sRSATyqPbi8usr-2" value="Guest Kernel" style="rounded=1;whiteSpace=wrap;html=1;strokeColor=#d6b656;align=center;verticalAlign=middle;arcSize=4;fontFamily=Verdana;fontSize=16;fillColor=#fff2cc;" vertex="1" parent="1">
          <mxGeometry x="425" y="8860" width="420" height="80" as="geometry" />
        </mxCell>
        <mxCell id="5vwQa9sRSATyqPbi8usr-4" value="Host Kernel" style="rounded=1;whiteSpace=wrap;html=1;fontFamily=Verdana;fontSize=16;arcSize=3;verticalAlign=middle;fillColor=#dae8fc;strokeColor=#6c8ebf;" vertex="1" parent="1">
          <mxGeometry x="390" y="8660" width="490" height="130" as="geometry" />
        </mxCell>
        <mxCell id="5vwQa9sRSATyqPbi8usr-5" value="Guest rootfs" style="rounded=1;whiteSpace=wrap;html=1;strokeColor=#d6b656;align=center;verticalAlign=top;arcSize=4;fontFamily=Verdana;fontSize=16;fillColor=#fff2cc;" vertex="1" parent="1">
          <mxGeometry x="425" y="8940" width="420" height="150" as="geometry" />
        </mxCell>
        <mxCell id="5vwQa9sRSATyqPbi8usr-6" value="SPEC 2006" style="rounded=1;whiteSpace=wrap;html=1;strokeColor=#36393d;align=center;verticalAlign=middle;arcSize=4;fontFamily=Verdana;fontSize=16;fillColor=#ffcc99;" vertex="1" parent="1">
          <mxGeometry x="450" y="9010" width="170" height="50" as="geometry" />
        </mxCell>
        <mxCell id="5vwQa9sRSATyqPbi8usr-7" value="scripts" style="rounded=1;whiteSpace=wrap;html=1;strokeColor=#36393d;align=center;verticalAlign=middle;arcSize=4;fontFamily=Verdana;fontSize=16;fillColor=#ffcc99;" vertex="1" parent="1">
          <mxGeometry x="640" y="9010" width="170" height="50" as="geometry" />
        </mxCell>
        <mxCell id="5vwQa9sRSATyqPbi8usr-8" value="IKVM static" style="rounded=1;whiteSpace=wrap;html=1;strokeColor=#36393d;align=center;verticalAlign=middle;arcSize=4;fontFamily=Verdana;fontSize=16;fillColor=#cce5ff;" vertex="1" parent="1">
          <mxGeometry x="450" y="9130" width="170" height="50" as="geometry" />
        </mxCell>
        <mxCell id="5vwQa9sRSATyqPbi8usr-9" value="scripts" style="rounded=1;whiteSpace=wrap;html=1;strokeColor=#36393d;align=center;verticalAlign=middle;arcSize=4;fontFamily=Verdana;fontSize=16;fillColor=#cce5ff;" vertex="1" parent="1">
          <mxGeometry x="657" y="9130" width="170" height="50" as="geometry" />
        </mxCell>
        <mxCell id="5vwQa9sRSATyqPbi8usr-10" value="Xiangshan H Extension Test" style="text;html=1;align=center;verticalAlign=middle;whiteSpace=wrap;rounded=0;fontFamily=Verdana;fontSize=16;fontColor=default;" vertex="1" parent="1">
          <mxGeometry x="40" y="8520" width="280" height="70" as="geometry" />
        </mxCell>
        <mxCell id="5vwQa9sRSATyqPbi8usr-11" value="openSBI" style="rounded=1;whiteSpace=wrap;html=1;fontFamily=Verdana;fontSize=16;arcSize=3;verticalAlign=middle;fillColor=#f9f7ed;strokeColor=#36393d;" vertex="1" parent="1">
          <mxGeometry x="390" y="9200" width="490" height="70" as="geometry" />
        </mxCell>
        <mxCell id="5vwQa9sRSATyqPbi8usr-12" value="" style="shape=curlyBracket;whiteSpace=wrap;html=1;rounded=1;labelPosition=left;verticalLabelPosition=middle;align=right;verticalAlign=middle;strokeColor=default;arcSize=4;fontFamily=Verdana;fontSize=16;fontColor=default;fillColor=default;strokeWidth=2;size=0.5;" vertex="1" parent="1">
          <mxGeometry x="120" y="8660" width="100" height="610" as="geometry" />
        </mxCell>
        <mxCell id="5vwQa9sRSATyqPbi8usr-13" value="" style="shape=curlyBracket;whiteSpace=wrap;html=1;rounded=1;labelPosition=left;verticalLabelPosition=middle;align=right;verticalAlign=middle;strokeColor=default;arcSize=4;fontFamily=Verdana;fontSize=16;fontColor=default;fillColor=default;strokeWidth=2;size=0.5;" vertex="1" parent="1">
          <mxGeometry x="260" y="8660" width="100" height="540" as="geometry" />
        </mxCell>
        <mxCell id="5vwQa9sRSATyqPbi8usr-14" value="data.txt for FPGA&lt;span style=&quot;white-space: pre;&quot;&gt;&#x9;&lt;/span&gt;" style="text;html=1;align=center;verticalAlign=middle;whiteSpace=wrap;rounded=0;fontFamily=Verdana;fontSize=16;fontColor=default;" vertex="1" parent="1">
          <mxGeometry y="8930" width="120" height="70" as="geometry" />
        </mxCell>
        <mxCell id="5vwQa9sRSATyqPbi8usr-15" value="Image" style="text;html=1;align=center;verticalAlign=middle;whiteSpace=wrap;rounded=0;fontFamily=Verdana;fontSize=16;fontColor=default;" vertex="1" parent="1">
          <mxGeometry x="180" y="8907.5" width="80" height="45" as="geometry" />
        </mxCell>
      </root>
    </mxGraphModel>
  </diagram>
</mxfile>
